<?xml version="1.0" encoding="UTF-8" standalone="no"?>
<!-- Created with Inkscape (http://www.inkscape.org/) -->

<svg
   xmlns:dc="http://purl.org/dc/elements/1.1/"
   xmlns:cc="http://creativecommons.org/ns#"
   xmlns:rdf="http://www.w3.org/1999/02/22-rdf-syntax-ns#"
   xmlns:svg="http://www.w3.org/2000/svg"
   xmlns="http://www.w3.org/2000/svg"
   xmlns:sodipodi="http://sodipodi.sourceforge.net/DTD/sodipodi-0.dtd"
   xmlns:inkscape="http://www.inkscape.org/namespaces/inkscape"
   width="202.93555mm"
   height="43.850857mm"
   viewBox="0 0 202.93555 43.850856"
   version="1.1"
   id="svg8"
   inkscape:version="0.92.4 (5da689c313, 2019-01-14)"
   sodipodi:docname="reach-logo.svg">
  <defs
     id="defs2" />
  <sodipodi:namedview
     id="base"
     pagecolor="#ffffff"
     bordercolor="#666666"
     borderopacity="1.0"
     inkscape:pageopacity="0.0"
     inkscape:pageshadow="2"
     inkscape:zoom="0.98994949"
     inkscape:cx="314.63681"
     inkscape:cy="297.393"
     inkscape:document-units="mm"
     inkscape:current-layer="layer1"
     showgrid="false"
     fit-margin-top="0"
     fit-margin-left="0"
     fit-margin-right="0"
     fit-margin-bottom="0"
     inkscape:window-width="1920"
     inkscape:window-height="1001"
     inkscape:window-x="4791"
     inkscape:window-y="-9"
     inkscape:window-maximized="1" />
  <metadata
     id="metadata5">
    <rdf:RDF>
      <cc:Work
         rdf:about="">
        <dc:format>image/svg+xml</dc:format>
        <dc:type
           rdf:resource="http://purl.org/dc/dcmitype/StillImage" />
        <dc:title></dc:title>
      </cc:Work>
    </rdf:RDF>
  </metadata>
  <g
     inkscape:label="Layer 1"
     inkscape:groupmode="layer"
     id="layer1"
     transform="translate(-2.7562816,-178.25756)">
    <g
       id="g4529"
       transform="translate(-0.8480719,55.890934)">
      <path
         style="fill:#fff;stroke-width:0.08466666"
         d="m 115.15272,166.10437 c -1.31697,-0.19381 -2.40592,-0.69422 -3.2003,-1.47063 -0.4849,-0.47395 -0.88444,-1.07231 -0.95647,-1.43245 -0.0636,-0.31807 -0.0574,-0.32178 1.18625,-0.70596 l 0.92414,-0.28549 0.17652,0.24691 c 0.91642,1.28185 1.98104,1.73877 4.04557,1.73629 1.54712,-0.002 2.49278,-0.27118 2.97831,-0.8482 0.31183,-0.37059 0.30705,-0.85684 -0.0116,-1.17545 -0.39595,-0.39594 -1.07799,-0.58108 -3.30479,-0.89706 -3.0319,-0.43022 -3.89101,-0.71222 -4.80597,-1.57756 -0.626,-0.59204 -0.83919,-1.10493 -0.84045,-2.02186 -8.4e-4,-0.64581 0.0283,-0.78114 0.27716,-1.28671 0.6157,-1.25067 1.86297,-1.89158 4.10309,-2.10839 1.7509,-0.16945 3.55321,0.0854 4.84717,0.68532 1.07958,0.50056 2.07357,1.5515 2.10415,2.22472 l 0.0125,0.27544 -0.889,0.31185 c -1.14764,0.40257 -1.22546,0.40288 -1.43019,0.006 -0.34037,-0.66041 -1.01219,-1.10711 -2.01817,-1.3419 -0.87756,-0.20482 -3.02411,-0.13179 -3.68129,0.12524 -0.60612,0.23706 -0.91368,0.58214 -0.91368,1.02513 0,0.2579 0.053,0.36928 0.25801,0.54175 0.37922,0.31909 0.90025,0.44656 3.34032,0.81721 1.21074,0.18392 2.46669,0.4144 2.79102,0.51219 1.80659,0.54473 2.71767,1.47617 2.81988,2.88297 0.14494,1.99469 -1.20357,3.40146 -3.60636,3.76215 -0.95517,0.14339 -3.22797,0.14276 -4.20587,-0.001 z m 16.64695,-0.0113 c -1.5049,-0.23408 -2.88388,-1.19304 -3.46091,-2.40674 -0.49269,-1.03631 -0.53528,-1.49657 -0.50934,-5.50333 l 0.0233,-3.59834 1.09984,-0.0238 c 0.96039,-0.0208 1.11336,-0.005 1.2065,0.12201 0.0817,0.11179 0.10666,0.97328 0.10666,3.6878 0,3.32516 0.0104,3.57142 0.16937,4.02382 0.22418,0.63782 0.53942,1.01041 1.13301,1.33908 0.63216,0.35005 1.20988,0.4608 2.40368,0.4608 1.52177,0 2.3879,-0.29471 3.01324,-1.02527 0.58856,-0.68761 0.59182,-0.7122 0.64302,-4.85906 l 0.046,-3.72534 1.11756,-0.0236 c 1.06602,-0.0225 1.122,-0.0153 1.21413,0.15686 0.0698,0.13033 0.086,1.18323 0.0584,3.79126 -0.0419,3.96514 -0.0657,4.17864 -0.5783,5.19408 -0.30433,0.60289 -1.05598,1.42898 -1.57938,1.7358 -0.98334,0.57645 -2.0913,0.78868 -4.0424,0.77435 -0.74506,-0.005 -1.67404,-0.0596 -2.06438,-0.12035 z m 34.23772,0.003 c -1.28936,-0.20475 -2.23073,-0.64317 -3.07513,-1.43215 -0.56331,-0.52633 -1.02906,-1.2251 -1.03041,-1.54595 -0.001,-0.23442 0.0823,-0.27707 1.22018,-0.62436 l 0.92465,-0.28222 0.17602,0.24624 c 0.92363,1.29209 1.93941,1.73245 4.00302,1.73539 1.12999,0.002 1.70499,-0.0906 2.3566,-0.37784 0.87471,-0.3856 1.16599,-1.15393 0.62799,-1.65649 -0.41616,-0.38875 -1.05912,-0.56828 -3.02046,-0.8434 -2.23,-0.31279 -2.61639,-0.38342 -3.32546,-0.60784 -2.06048,-0.65215 -3.00666,-2.16764 -2.46557,-3.94906 0.43517,-1.43268 1.8191,-2.24444 4.22734,-2.4796 2.42662,-0.23694 4.84273,0.34221 6.05686,1.45186 0.49049,0.44827 1.05309,1.39538 0.96509,1.62468 -0.0495,0.12914 -1.72681,0.74316 -2.03,0.74316 -0.0835,0 -0.21651,-0.13625 -0.30991,-0.3175 -0.34038,-0.66042 -1.01219,-1.10711 -2.01818,-1.3419 -0.87756,-0.20482 -3.0241,-0.13179 -3.68129,0.12524 -0.60612,0.23706 -0.91368,0.58214 -0.91368,1.02513 0,0.25602 0.0531,0.36936 0.25138,0.53616 0.39042,0.32852 0.89353,0.45435 3.26229,0.8159 1.21073,0.1848 2.48055,0.41458 2.82182,0.51063 1.7967,0.50565 2.74841,1.45105 2.86515,2.84615 0.16474,1.96869 -1.19676,3.42595 -3.54822,3.7978 -0.99464,0.15728 -3.34957,0.15727 -4.34008,-3e-5 z m -20.32153,-0.1398 c -0.0233,-0.0609 -0.0325,-2.64443 -0.0204,-5.74111 l 0.0219,-5.63033 3.97933,-0.0223 c 4.38717,-0.0246 4.85594,0.0134 5.83273,0.47203 0.68267,0.32056 0.98164,0.58487 1.27907,1.13076 0.20409,0.37457 0.252,0.57615 0.28117,1.18299 0.0472,0.98053 -0.11899,1.48048 -0.69409,2.08856 -0.4019,0.42494 -0.41862,0.45966 -0.26209,0.54397 0.3288,0.17709 0.91102,0.85927 1.11658,1.30826 0.42415,0.92647 0.39521,2.03781 -0.0761,2.92204 -0.40601,0.76175 -1.16813,1.30201 -2.31724,1.64265 -0.44475,0.13184 -1.00396,0.15295 -4.80098,0.18124 -3.48507,0.026 -4.3056,0.0111 -4.33993,-0.0788 z m 8.46422,-2.09439 c 0.50444,-0.16304 0.86553,-0.5696 0.93858,-1.05675 0.12553,-0.83704 -0.31487,-1.47243 -1.14377,-1.65019 -0.2652,-0.0569 -1.50347,-0.0931 -3.18167,-0.0931 h -2.7475 v 1.42523 c 0,0.78387 0.028,1.45326 0.0623,1.48754 0.11126,0.11126 5.70006,0.008 6.07204,-0.11271 z m -0.28164,-5.00295 c 0.958,-0.26611 1.11094,-1.56771 0.24328,-2.07041 -0.28185,-0.1633 -0.43702,-0.1717 -3.175,-0.1717 h -2.87867 l -0.0236,1.16417 -0.0236,1.16417 2.77523,-5.1e-4 c 1.60238,-2.5e-4 2.90498,-0.0365 3.08227,-0.0858 z m 24.92019,7.09239 c -0.0222,-0.0582 -0.0306,-2.63948 -0.0185,-5.73616 l 0.0219,-5.63033 h 5.12234 5.12233 l 0.0242,0.93022 c 0.0209,0.80129 0.004,0.94505 -0.12201,1.03717 -0.11272,0.0824 -1.0264,0.10694 -3.98479,0.10694 h -3.83854 l 0.0236,1.16416 0.0236,1.16417 3.29454,0.0222 c 2.30591,0.0155 3.32933,0.0511 3.41048,0.11841 0.0882,0.0732 0.11027,0.32085 0.0921,1.03616 l -0.0238,0.93993 -3.38666,0.0423 -3.38667,0.0423 v 1.35467 1.35467 l 3.97933,0.0214 c 3.62116,0.0195 3.98886,0.0343 4.08517,0.16435 0.13016,0.17581 0.14421,1.57401 0.0182,1.80949 -0.0852,0.15916 -0.23281,0.16377 -5.252,0.16377 -4.05346,0 -5.17304,-0.0228 -5.20478,-0.10584 z m 14.07826,8.6e-4 c -0.0231,-0.0602 1.20347,-2.64252 2.72574,-5.73843 l 2.76777,-5.62892 1.31623,-0.0233 c 0.9879,-0.0174 1.3378,0.004 1.40271,0.0847 0.0816,0.10182 5.1224,10.49611 5.34534,11.02225 0.0841,0.19839 0.0829,0.26018 -0.006,0.31754 -0.0606,0.0392 -0.60547,0.0617 -1.21083,0.05 l -1.10067,-0.0212 -0.25513,-0.508 c -0.14032,-0.2794 -0.41434,-0.86043 -0.60892,-1.29117 l -0.35378,-0.78317 h -3.17492 c -2.44809,0 -3.19012,0.0242 -3.2413,0.10584 -0.0365,0.0582 -0.31662,0.63923 -0.62246,1.29116 l -0.55607,1.18534 -1.19295,0.0234 c -0.91478,0.018 -1.20274,-0.002 -1.23497,-0.0861 z m 8.96219,-4.78452 c -0.19289,-0.54179 -2.05391,-4.41314 -2.11324,-4.39603 -0.058,0.0168 -2.17012,4.41321 -2.17012,4.51728 0,0.0148 0.97562,0.0269 2.16806,0.0269 2.02847,0 2.16466,-0.01 2.1153,-0.14816 z M 16.850364,147.66114 c -0.02313,-0.0603 -0.03161,-3.06105 -0.01885,-6.66838 l 0.0232,-6.5588 0.225248,-0.4805 c 0.31535,-0.6727 0.835622,-1.20412 1.498227,-1.53034 l 0.558897,-0.27516 13.125147,-0.0423 13.125148,-0.0423 v -1.94733 -1.94733 l -14.266333,-0.043 c -7.846484,-0.0236 -14.275859,-0.0522 -14.2875,-0.0635 -0.04682,-0.0455 -0.01752,-5.43488 0.03023,-5.5593 0.04662,-0.12149 1.605758,-0.13392 16.802202,-0.13392 18.340843,0 17.29105,-0.0289 18.055465,0.49703 0.636467,0.4379 1.080122,1.15503 1.235901,1.99771 0.126267,0.68304 0.126382,9.82085 1.69e-4,10.5038 -0.185053,1.00104 -0.828805,1.84674 -1.750154,2.29917 -0.482284,0.23683 -0.500107,0.23883 -2.369772,0.26561 -1.036108,0.0148 -1.883833,0.0525 -1.883833,0.0837 0,0.0312 2.138325,2.19625 4.751834,4.81127 2.779192,2.78081 4.727828,4.79345 4.694003,4.84818 -0.0411,0.0664 -1.376096,0.0936 -4.603977,0.0936 h -4.546111 l -4.910119,-4.91067 -4.910119,-4.91066 h -6.497752 -6.497753 l -0.02186,4.8895 -0.02185,4.88949 -3.748819,0.0221 c -3.005246,0.0177 -3.75716,3.4e-4 -3.79087,-0.0875 z m 45.499496,-0.0102 c -1.120529,-0.40026 -1.887089,-1.28101 -2.102212,-2.41535 -0.04922,-0.25955 -0.08593,-1.91287 -0.08593,-3.87054 v -3.41744 h -3.424003 c -2.035454,0 -3.443867,-0.0321 -3.472985,-0.0793 -0.02694,-0.0436 0.104724,-0.31707 0.292586,-0.60772 0.578502,-0.89506 0.677736,-1.36685 0.677736,-3.22218 0,-0.94467 0.03607,-1.67271 0.08765,-1.76908 0.08401,-0.15697 0.206823,-0.16376 2.958462,-0.16376 h 2.870816 l 0.02604,-3.70417 0.02604,-3.70417 0.231478,-0.4941 c 0.461007,-0.98405 1.125503,-1.56053 2.012188,-1.74567 0.345861,-0.0722 6.575783,-0.0907 24.214667,-0.0717 l 23.749007,0.0255 -2.32834,2.33367 c -2.5084,2.51414 -2.63074,2.60844 -4.02166,3.09975 l -0.67734,0.23925 -17.801167,0.0223 -17.801167,0.0223 v 1.9885 1.98851 H 84.08271 c 14.971938,0 16.30529,0.0112 16.35381,0.13764 0.0386,0.10055 -0.572501,0.75953 -2.267494,2.44522 -2.226335,2.21412 -2.349449,2.32156 -3.039973,2.65284 -1.344524,0.64506 -0.346414,0.60365 -14.583834,0.60504 l -12.7635,0.001 v 1.98966 1.98967 h 11.390324 c 10.438123,0 11.394738,0.0115 11.443142,0.13764 0.03858,0.10055 -0.572499,0.75953 -2.267492,2.44522 -2.231448,2.2192 -2.347868,2.32072 -3.039974,2.65078 -1.361405,0.64926 -0.544593,0.60879 -12.20422,0.60464 -8.3718,-0.003 -10.505528,-0.0257 -10.753639,-0.11428 z m 27.142594,0.0232 c -0.03495,-0.0565 4.857428,-5.00497 12.123496,-12.26238 11.78499,-11.77092 12.2028,-12.17779 12.8171,-12.48147 1.15249,-0.56974 1.01793,-0.56134 8.99167,-0.56134 7.65294,0 7.77928,0.006 8.35159,0.41379 0.40164,0.28599 0.9513,0.93499 1.14279,1.34934 l 0.18295,0.39587 v 11.59933 11.59933 l -3.71978,0.0221 c -2.91965,0.0173 -3.73435,-8.9e-4 -3.78753,-0.0847 -0.0373,-0.0587 -0.0683,-2.26891 -0.0691,-4.91157 l -10e-4,-4.80483 h -8.5292 -8.5292 l -4.91332,4.91066 -4.913337,4.91067 h -4.544145 c -3.26219,0 -4.560672,-0.0267 -4.602734,-0.0948 z m 36.031936,-17.55819 v -1.98967 h -3.62018 -3.62018 l -1.98831,1.98967 -1.98831,1.98967 h 5.60849 5.60849 z m 12.86979,17.51177 c -0.82577,-0.2889 -1.55376,-0.98435 -1.88362,-1.79939 l -0.19117,-0.47238 v -10.287 c 0,-9.58827 0.0101,-10.31575 0.14848,-10.71033 0.18571,-0.52944 0.68002,-1.18968 1.12469,-1.5022 0.7264,-0.51054 -0.10855,-0.48537 16.13793,-0.48647 13.48299,-9.1e-4 14.87591,0.0115 14.9225,0.13292 0.0915,0.23832 0.058,5.28363 -0.0362,5.45965 -0.086,0.16076 -0.31383,0.16376 -12.40367,0.16376 H 143.8971 v 6.90034 6.90033 h 12.31602 c 12.08984,0 12.31763,0.003 12.40367,0.16377 0.0942,0.17605 0.12776,5.30583 0.0362,5.5443 -0.0466,0.12144 -1.44146,0.13355 -14.96483,0.12989 -13.33751,-0.004 -14.95366,-0.0181 -15.29398,-0.13719 z m 33.41465,0.0848 c -0.031,-0.031 -0.0564,-5.74604 -0.0564,-12.7 v -12.64355 h 3.7586 c 3.34926,0 3.76421,0.0146 3.81,0.13392 0.0283,0.0737 0.0514,2.26441 0.0514,4.86834 v 4.73441 h 9.35566 9.35567 v -4.73441 c 0,-2.60393 0.0231,-4.79468 0.0514,-4.86834 0.0458,-0.1193 0.45622,-0.13392 3.75861,-0.13392 3.30239,0 3.71283,0.0146 3.75861,0.13392 0.0777,0.2026 0.059,25.03829 -0.019,25.16115 -0.0532,0.0838 -0.86788,0.10198 -3.78754,0.0847 l -3.71978,-0.0221 -0.0423,-4.86833 -0.0423,-4.86833 -9.3345,-0.0215 -9.3345,-0.0215 v 4.77712 c 0,2.62741 -0.0231,4.83737 -0.0514,4.91103 -0.0458,0.1193 -0.45577,0.13393 -3.75355,0.13393 -2.03619,0 -3.72757,-0.0254 -3.75861,-0.0564 z M 3.7102194,137.89155 c -0.081694,-0.033 -0.1058333,-0.68597 -0.1058333,-2.86292 0,-2.49357 0.015512,-2.82617 0.1339247,-2.87161 0.073659,-0.0283 2.9704543,-0.0514 6.4373242,-0.0514 5.178083,0 6.311141,0.0202 6.346764,0.113 0.02385,0.0622 -0.08871,0.30927 -0.250125,0.54914 -0.602183,0.89484 -0.674742,1.21365 -0.726059,3.19019 -0.02539,0.9779 -0.07699,1.82562 -0.114659,1.88383 -0.05376,0.0831 -1.310236,0.1044 -5.842,0.0992 -3.1754268,-0.004 -5.8211282,-0.0259 -5.8793366,-0.0494 z"
         id="path4543"
         inkscape:connector-curvature="0" />
      <path
         style="fill:#fff;stroke-width:0.08466666"
         d="m 115.83005,166.17466 c -2.29328,-0.33533 -3.88736,-1.23736 -4.57952,-2.59139 -0.11228,-0.21964 -0.20414,-0.45267 -0.20414,-0.51784 0,-0.0756 0.2984,-0.21247 0.8255,-0.3785 1.34059,-0.42226 1.21109,-0.43071 1.57866,0.10299 0.59222,0.85989 1.55947,1.32698 3.0686,1.48184 2.49766,0.25631 4.54108,-0.65624 4.05806,-1.81226 -0.27862,-0.66682 -0.95643,-0.90734 -3.60367,-1.27871 -1.14115,-0.16009 -2.35292,-0.36709 -2.69282,-0.46001 -1.2944,-0.35382 -2.19795,-0.99161 -2.61876,-1.84851 -0.20219,-0.41169 -0.23396,-0.57701 -0.23015,-1.19731 0.004,-0.59177 0.044,-0.80575 0.227,-1.20399 0.44875,-0.97645 1.44665,-1.63903 2.92746,-1.94376 1.14571,-0.23577 3.77382,-0.188 4.79978,0.0872 0.96436,0.25871 1.8304,0.70906 2.36241,1.22848 0.42844,0.41828 0.89726,1.17133 0.89726,1.44121 0,0.0809 -0.31079,0.22638 -0.91033,0.42615 -0.50067,0.16683 -0.95146,0.30333 -1.00174,0.30333 -0.0503,0 -0.21172,-0.18566 -0.35876,-0.41259 -0.52709,-0.81343 -1.34347,-1.20695 -2.83765,-1.36782 -2.17222,-0.23388 -3.86619,0.3637 -3.86619,1.36388 0,0.74005 0.55245,0.96107 3.56323,1.42554 3.09179,0.47697 3.92563,0.73504 4.79245,1.48322 1.27989,1.10473 1.10056,3.56924 -0.33435,4.59488 -1.09961,0.78597 -2.08162,1.04363 -4.12666,1.08274 -0.81492,0.0156 -1.59597,0.0116 -1.73567,-0.009 z m 16.46767,-0.0361 c -2.31631,-0.39284 -3.61179,-1.42361 -4.20494,-3.34573 -0.14098,-0.45688 -0.15539,-0.85681 -0.15539,-4.31357 v -3.81 l 1.0795,-0.0237 1.0795,-0.0237 0.002,3.24103 c 9.3e-4,1.78256 0.0396,3.50361 0.086,3.82456 0.26319,1.82078 1.38292,2.60687 3.72229,2.61318 1.98371,0.005 3.06045,-0.5421 3.5862,-1.82335 0.17327,-0.42226 0.18327,-0.60672 0.22376,-4.12503 l 0.0424,-3.683 1.0795,-0.0237 1.0795,-0.0237 -0.001,3.70669 c -0.002,4.1583 -0.031,4.44566 -0.55566,5.44413 -0.57074,1.08612 -1.5905,1.82619 -3.0412,2.20709 -0.52605,0.13812 -0.99882,0.18454 -2.11667,0.2078 -0.79163,0.0165 -1.64888,-0.006 -1.905,-0.049 z m 34.62867,0.0483 c -0.0699,-0.0165 -0.4106,-0.0763 -0.75723,-0.13295 -1.727,-0.28202 -3.07869,-1.06975 -3.82984,-2.23194 -0.51238,-0.79274 -0.49291,-0.82871 0.64223,-1.18622 0.53121,-0.1673 0.99794,-0.30274 1.03717,-0.30097 0.0392,0.002 0.21675,0.21261 0.39447,0.46854 0.59129,0.85148 1.55698,1.31257 3.07529,1.46838 1.36371,0.13994 2.64049,-0.0586 3.45825,-0.53789 0.69202,-0.40555 0.85223,-1.11925 0.36116,-1.60885 -0.44014,-0.43881 -1.07387,-0.61638 -3.35183,-0.93916 -2.98867,-0.42349 -3.87904,-0.71006 -4.75661,-1.53093 -0.58333,-0.54563 -0.80025,-1.08207 -0.80148,-1.98202 -8.4e-4,-0.64604 0.0282,-0.78105 0.27761,-1.28761 0.32178,-0.65364 0.75673,-1.06514 1.49914,-1.4183 1.03393,-0.49184 1.42236,-0.55153 3.556,-0.54643 1.72985,0.004 2.02298,0.0253 2.62467,0.18958 0.91145,0.24884 1.81152,0.71453 2.31615,1.19836 0.42604,0.40848 0.94129,1.20498 0.94272,1.45728 8.4e-4,0.10442 -0.23616,0.22012 -0.90953,0.4445 -0.50068,0.16683 -0.95824,0.30333 -1.01678,0.30333 -0.0586,0 -0.22412,-0.19122 -0.36793,-0.42494 -0.47612,-0.77378 -1.35129,-1.19275 -2.83776,-1.3585 -1.14712,-0.12791 -2.44572,0.0228 -3.11173,0.36109 -0.52318,0.26575 -0.73014,0.54153 -0.73014,0.9729 0,0.77756 0.51224,0.98697 3.57627,1.46203 1.23901,0.19211 2.53162,0.42656 2.87247,0.52102 1.23407,0.34197 2.11767,0.97572 2.5246,1.81074 0.1739,0.35681 0.20658,0.54972 0.20801,1.22766 0.002,0.70723 -0.0275,0.86794 -0.24,1.33116 -0.46086,1.00448 -1.53971,1.7559 -3.01469,2.09974 -0.58083,0.1354 -3.25874,0.26074 -3.64066,0.1704 z m -21.1047,-0.26555 c -0.0341,-0.0341 -0.062,-2.58927 -0.062,-5.67819 v -5.61622 l 3.95817,0.003 c 4.30235,0.003 4.85057,0.047 5.75433,0.45943 1.02114,0.46602 1.54817,1.28442 1.54817,2.40409 0,0.87013 -0.19025,1.39584 -0.6837,1.88929 -0.22933,0.22933 -0.41697,0.43621 -0.41697,0.45974 0,0.0235 0.22714,0.25307 0.50477,0.5101 0.71433,0.66134 0.96122,1.19948 1.0029,2.18599 0.0271,0.64044 0.001,0.84971 -0.15737,1.27046 -0.3419,0.90752 -1.19879,1.60437 -2.40863,1.95877 -0.44704,0.13095 -1.01619,0.15281 -4.74287,0.18218 -2.32917,0.0184 -4.26275,0.005 -4.29683,-0.0286 z m 8.49216,-2.03169 c 0.69466,-0.32148 1.00662,-0.88809 0.90522,-1.64412 -0.1032,-0.76942 -0.68866,-1.15126 -1.95274,-1.27361 -1.0991,-0.10638 -4.93896,-0.10042 -5.14151,0.008 -0.15222,0.0815 -0.16377,0.19089 -0.16377,1.55223 0,0.80551 0.028,1.49256 0.0622,1.52676 0.0342,0.0342 1.37723,0.0501 2.9845,0.0353 2.75809,-0.0254 2.94387,-0.0369 3.3061,-0.20453 z m -0.24277,-5.00189 c 0.51262,-0.23487 0.70564,-0.53316 0.70564,-1.09046 0,-0.55612 -0.16199,-0.8534 -0.58992,-1.08255 -0.3309,-0.17719 -0.43141,-0.18282 -3.26241,-0.18282 h -2.921 l -0.0237,1.18462 c -0.0211,1.05386 -0.007,1.19706 0.127,1.29727 0.12003,0.0897 0.70191,0.10678 2.86002,0.0838 2.55429,-0.0272 2.73194,-0.0392 3.10436,-0.20985 z m 24.84975,7.02806 c -0.031,-0.031 -0.0564,-2.58375 -0.0564,-5.67267 v -5.61622 h 5.08 5.08 v 0.93133 0.93133 h -3.83616 c -2.94889,0 -3.86985,0.0247 -3.98185,0.10655 -0.12791,0.0935 -0.14281,0.25122 -0.12202,1.29116 l 0.0237,1.18463 3.38667,0.0423 3.38667,0.0423 v 0.93134 0.93133 l -3.38667,0.0423 -3.38667,0.0423 v 1.43933 1.43933 l 4.02167,0.0423 4.02167,0.0423 0.0239,0.9525 0.0239,0.9525 h -5.111 c -2.81104,0 -5.1364,-0.0254 -5.16744,-0.0564 z m 14.08289,-0.0627 c 0,-0.1235 5.28679,-10.93143 5.44066,-11.1225 0.0651,-0.0808 0.40432,-0.1021 1.34669,-0.0847 l 1.25972,0.0233 1.99621,4.10633 c 1.09791,2.25849 2.33296,4.80269 2.74455,5.6538 l 0.74835,1.54746 -1.19122,-0.0235 -1.19121,-0.0235 -0.53603,-1.17282 c -0.2948,-0.64505 -0.58021,-1.22607 -0.63423,-1.29117 -0.0809,-0.0975 -0.65171,-0.11812 -3.24169,-0.11705 -1.72891,6.8e-4 -3.18647,0.0293 -3.23902,0.0635 -0.0526,0.0342 -0.31244,0.53845 -0.5775,1.12054 -0.72197,1.58541 -0.53659,1.43933 -1.82657,1.43933 -0.88797,0 -1.09871,-0.0228 -1.09871,-0.11914 z m 8.84074,-4.41958 c 0.0737,-0.0283 0.13393,-0.0985 0.13393,-0.15605 0,-0.14629 -2.02429,-4.46557 -2.15926,-4.60727 -0.0927,-0.0974 -0.12362,-0.0906 -0.19471,0.0423 -0.2275,0.42558 -2.13337,4.5341 -2.13337,4.59898 0,0.041 0.0476,0.0938 0.10584,0.11732 0.15265,0.0616 4.08795,0.0659 4.24757,0.005 z M 16.914872,147.66824 c -0.155906,-0.1559 -0.143999,-12.45401 0.0127,-13.11977 0.212133,-0.90126 0.900064,-1.74813 1.732604,-2.13289 l 0.395874,-0.18295 13.165666,-0.0423 13.165667,-0.0423 v -2.032 -2.032 l -14.219156,-0.0214 c -11.246427,-0.0169 -14.233174,-0.0435 -14.286204,-0.127 -0.07781,-0.12253 -0.09497,-5.23273 -0.01825,-5.43267 0.04662,-0.1215 1.603669,-0.13383 16.785167,-0.13292 17.946355,10e-4 17.209831,-0.016 17.908786,0.41595 0.426351,0.2635 0.888219,0.80991 1.141877,1.35089 l 0.223111,0.47583 0.02363,5.32504 c 0.02612,5.88663 0.03157,5.81573 -0.509721,6.62114 -0.151748,0.22578 -0.466405,0.55404 -0.699238,0.72944 -0.725977,0.54692 -0.964586,0.59728 -3.026833,0.63885 -1.012825,0.0204 -1.8415,0.0618 -1.8415,0.092 0,0.0302 2.13858,2.19376 4.752399,4.80789 2.814,2.81433 4.728582,4.79149 4.694004,4.84744 -0.04178,0.0676 -1.327738,0.0945 -4.51984,0.0945 h -4.461444 l -4.910393,-4.9111 -4.910393,-4.9111 -6.561667,0.0216 -6.561666,0.0216 -0.04233,4.86833 -0.04233,4.86833 -3.644014,0.0221 c -2.76367,0.0167 -3.668773,-0.003 -3.7465,-0.0804 z m 72.66213,0.006 c -0.0351,-0.0568 4.840343,-4.99032 12.123508,-12.26794 11.98275,-11.97364 12.19261,-12.17785 12.81721,-12.4724 1.22783,-0.57901 1.00282,-0.56478 8.91642,-0.56367 7.85228,10e-4 7.67111,-0.0102 8.41966,0.52522 0.22087,0.15799 0.54352,0.49474 0.717,0.74835 0.60395,0.8829 0.57359,0.21049 0.57359,12.70285 0,9.38953 -0.019,11.24825 -0.11562,11.32846 -0.0831,0.069 -1.13634,0.0898 -3.7465,0.0739 l -3.63088,-0.0221 -0.0219,-4.88949 -0.0219,-4.8895 h -8.61318 -8.61318 l -4.91332,4.91066 -4.913334,4.91067 h -4.459478 c -3.204887,0 -4.475988,-0.0267 -4.518186,-0.095 z M 125.47513,132.1389 c 0.11681,-0.0448 0.13392,-0.30325 0.13392,-2.02294 0,-1.71969 -0.0171,-1.97812 -0.13392,-2.02294 -0.0737,-0.0283 -1.71967,-0.0514 -3.65779,-0.0514 h -3.52386 l -2.01077,2.00439 c -1.10593,1.10242 -1.99132,2.03587 -1.96756,2.07434 0.0491,0.0795 10.95398,0.0976 11.15998,0.0185 z m 13.13026,15.51147 c -0.87812,-0.27877 -1.65577,-0.94415 -2.01682,-1.72569 l -0.18452,-0.39939 v -10.49866 -10.49867 l 0.18296,-0.39587 c 0.20918,-0.45264 0.76607,-1.0891 1.17297,-1.34058 0.71263,-0.44043 -0.0371,-0.42065 15.98072,-0.42163 l 14.88131,-9.2e-4 -0.0223,2.81517 -0.0223,2.81516 -12.319,0.0423 -12.319,0.0423 v 6.94267 6.94266 l 12.319,0.0423 12.319,0.0423 v 2.83633 2.83633 l -14.81667,0.0156 c -11.77702,0.0124 -14.88614,-0.006 -15.15533,-0.0919 z m 33.24949,0.0179 c -0.0793,-0.0793 -0.10249,-2.92539 -0.10249,-12.56696 0,-6.85546 0.0231,-12.52474 0.0514,-12.5984 0.0458,-0.1193 0.45701,-0.13392 3.76767,-0.13392 h 3.71627 v 4.86672 4.86672 l 0.1905,0.046 c 0.10477,0.0253 4.32435,0.0356 9.37683,0.0228 l 9.18634,-0.0232 0.0441,-4.86833 c 0.0242,-2.67759 0.0528,-4.87786 0.0635,-4.8895 0.0107,-0.0117 1.69595,-0.0212 3.74504,-0.0212 h 3.7256 l -0.0214,12.67883 -0.0215,12.67883 -3.63089,0.0221 c -2.61015,0.0159 -3.66338,-0.005 -3.7465,-0.0739 -0.0952,-0.079 -0.11561,-0.94508 -0.11561,-4.91158 v -4.81563 h -9.39731 -9.39732 l -0.0219,4.8895 -0.0219,4.88949 -3.64401,0.0221 c -2.76368,0.0167 -3.66878,-0.003 -3.7465,-0.0804 z M 62.26585,147.52246 c -0.839299,-0.32826 -1.37203,-0.84918 -1.782676,-1.74317 -0.191141,-0.41612 -0.195176,-0.48681 -0.236788,-4.14866 l -0.04233,-3.72534 -3.407834,-0.0221 c -1.874308,-0.0122 -3.407833,-0.0552 -3.407833,-0.0956 0,-0.0404 0.134734,-0.29714 0.299409,-0.57054 0.53817,-0.8935 0.644903,-1.39161 0.705185,-3.29109 l 0.05374,-1.69333 2.899834,-0.0223 2.899833,-0.0223 v -3.41234 c 0,-3.53816 0.04474,-4.13729 0.35423,-4.74394 0.262591,-0.51473 0.888308,-1.12866 1.413069,-1.38647 l 0.476368,-0.23403 23.960666,-0.0198 23.960667,-0.0198 -2.32834,2.31065 c -2.21999,2.20314 -2.36182,2.32694 -3.048,2.66055 -1.47411,0.71669 0.46819,0.64733 -19.51566,0.69696 l -17.78,0.0442 v 2.032 2.032 l 16.251984,0.0214 c 10.991176,0.0145 16.280166,0.0496 16.339036,0.10844 0.12712,0.12713 -4.245162,4.43784 -4.87669,4.80801 -0.263822,0.15463 -0.759122,0.38323 -1.100667,0.508 l -0.620996,0.22684 -12.996334,0.0423 -12.996333,0.0423 v 2.032 2.032 l 11.341409,0.0215 c 7.671053,0.0145 11.369747,0.0498 11.42898,0.10905 0.06032,0.0603 -0.623528,0.79305 -2.197405,2.35448 -2.170572,2.15341 -2.321018,2.28453 -3.004651,2.6186 -1.319723,0.6449 -0.59935,0.60921 -12.234333,0.60618 -9.861817,-0.003 -10.434867,-0.0109 -10.807536,-0.15662 z M 3.6043861,135.02663 v -2.83634 h 6.3873366 c 3.5130343,0 6.4059013,0.03 6.4285913,0.0667 0.02269,0.0367 -0.08719,0.25839 -0.244168,0.49261 -0.620855,0.9263 -0.803093,1.79982 -0.803093,3.84944 v 1.26387 H 9.4887194 3.6043861 Z"
         id="path4541"
         inkscape:connector-curvature="0" />
      <path
         style="fill:#fff;stroke-width:0.08466666"
         d="m 115.70305,166.14105 c -0.78327,-0.12605 -1.95189,-0.50076 -2.57918,-0.82699 -0.34569,-0.17978 -0.81338,-0.5253 -1.11404,-0.82304 -0.52336,-0.51824 -0.99846,-1.29168 -0.89344,-1.45445 0.0594,-0.0921 1.68136,-0.62028 1.90482,-0.62028 0.0704,0 0.20759,0.12873 0.30483,0.28607 0.2126,0.34399 0.82554,0.92183 1.16083,1.09435 1.35455,0.69696 4.00413,0.74787 5.2798,0.10144 0.21815,-0.11054 0.52128,-0.34296 0.67364,-0.51648 0.24863,-0.28318 0.27252,-0.35527 0.23323,-0.70381 -0.0357,-0.31676 -0.10276,-0.43931 -0.36395,-0.6651 -0.46045,-0.39802 -1.10708,-0.56546 -3.48592,-0.90264 -2.95906,-0.41942 -3.85437,-0.73127 -4.67394,-1.62802 -0.54284,-0.59396 -0.71316,-1.10234 -0.6625,-1.9775 0.069,-1.19254 0.60526,-1.94149 1.79434,-2.50619 0.80996,-0.38465 1.55787,-0.53692 2.92948,-0.59643 2.44716,-0.10618 4.31319,0.376 5.43978,1.40564 0.46996,0.42953 1.07203,1.40612 0.94052,1.52559 -0.04,0.0363 -0.48325,0.20181 -0.98512,0.36783 l -0.91249,0.30186 -0.21897,-0.34687 c -0.65304,-1.03448 -1.84209,-1.50692 -3.78433,-1.5036 -1.49193,0.003 -2.50816,0.32422 -2.91028,0.92121 -0.3527,0.52364 -0.17853,1.02555 0.47087,1.35684 0.47108,0.24033 0.81682,0.31372 3.01836,0.64073 3.07817,0.45721 4.14733,0.82061 4.90999,1.66889 0.51451,0.57224 0.66479,1.06973 0.61772,2.04479 -0.045,0.93303 -0.25071,1.42883 -0.83657,2.01666 -0.4885,0.49014 -1.19905,0.8552 -2.2164,1.13871 -0.66198,0.18448 -0.99492,0.22219 -2.17841,0.24674 -0.76835,0.0159 -1.60655,-0.005 -1.86267,-0.046 z m 16.84867,0.0283 c -0.58199,-0.0774 -1.8289,-0.46921 -2.32833,-0.73157 -1.08401,-0.56945 -1.91606,-1.71974 -2.15497,-2.97917 -0.0653,-0.34448 -0.0883,-1.67989 -0.0714,-4.14866 l 0.025,-3.64067 h 1.016 1.016 l 0.0469,3.683 c 0.05,3.9255 0.0558,3.97958 0.49827,4.67728 0.5208,0.82121 1.45448,1.23259 2.97473,1.31065 2.25237,0.11565 3.56764,-0.57598 4.06129,-2.1356 0.0757,-0.23922 0.12202,-1.39525 0.15765,-3.937 l 0.0505,-3.59833 h 1.016 1.016 v 3.76767 c 0,4.10998 -0.0173,4.28158 -0.52105,5.27569 -0.40398,0.79722 -1.31012,1.59584 -2.21117,1.94881 -0.99338,0.38913 -1.64921,0.50486 -2.98247,0.52626 -0.72178,0.0116 -1.44568,0.003 -1.60867,-0.0184 z m 34.163,-0.0235 c -1.5729,-0.25924 -2.8026,-0.77904 -3.62435,-1.53202 -0.54483,-0.49923 -1.1622,-1.4702 -1.02028,-1.60463 0.0857,-0.0812 1.73004,-0.59293 1.90526,-0.59293 0.0663,0 0.18263,0.10514 0.25854,0.23364 0.23421,0.39649 0.8498,0.94901 1.30601,1.17222 0.68365,0.33447 1.26483,0.4611 2.3624,0.51473 2.0706,0.10116 3.61684,-0.50612 3.73432,-1.46664 0.0542,-0.44302 -0.19029,-0.815 -0.7081,-1.0774 -0.59063,-0.29929 -0.88634,-0.36339 -3.17509,-0.6882 -2.79889,-0.39722 -3.769,-0.71889 -4.56317,-1.51306 -0.51699,-0.517 -0.68987,-0.91924 -0.73273,-1.70496 -0.0441,-0.80842 0.0593,-1.24173 0.42717,-1.789 0.81318,-1.2099 2.57764,-1.78783 5.18469,-1.69821 2.65535,0.0913 4.24869,0.7488 5.13405,2.11861 0.50504,0.78141 0.48946,0.81161 -0.60573,1.17343 l -0.93267,0.30813 -0.14683,-0.21301 c -0.79854,-1.15852 -1.56629,-1.51619 -3.4533,-1.60875 -2.38555,-0.11702 -3.88137,0.64822 -3.42425,1.7518 0.22714,0.54837 0.77813,0.72039 3.76739,1.17621 1.22484,0.18677 2.50937,0.43316 2.89574,0.55545 1.25696,0.39784 2.15507,1.18487 2.40402,2.10669 0.0523,0.19359 0.0791,0.65679 0.0596,1.02932 -0.085,1.6232 -1.10504,2.63699 -3.20036,3.18073 -0.56378,0.1463 -1.01309,0.19226 -2.07433,0.21219 -0.74507,0.014 -1.54517,-0.006 -1.778,-0.0443 z m 38.57814,-0.25825 -1.13052,-0.0423 -0.52085,-1.143 c -0.28646,-0.62865 -0.55149,-1.19062 -0.58896,-1.24883 -0.0526,-0.0816 -0.81147,-0.10584 -3.32086,-0.10584 h -3.25271 l -0.12159,0.1905 c -0.0669,0.10478 -0.33992,0.67628 -0.60678,1.27 l -0.4852,1.0795 h -1.13084 c -0.62196,0 -1.13083,-0.0151 -1.13083,-0.0336 0,-0.1065 5.45721,-11.11098 5.53546,-11.16229 0.17281,-0.11329 2.40598,-0.0763 2.4796,0.041 0.0365,0.0582 0.90905,1.83938 1.93897,3.95817 1.02991,2.11878 2.24186,4.60982 2.69323,5.53565 0.45136,0.92583 0.80979,1.68783 0.79653,1.69333 -0.0133,0.006 -0.53286,-0.009 -1.15465,-0.0323 z m -3.26704,-4.51244 c 0.0453,-0.11795 -2.01633,-4.59611 -2.20543,-4.7906 -0.13705,-0.14095 -0.0962,-0.21631 -1.44004,2.6579 -0.53658,1.14766 -0.95394,2.12171 -0.92746,2.16456 0.0274,0.0443 1.01611,0.0779 2.28948,0.0779 1.75795,0 2.25042,-0.0237 2.28345,-0.10978 z m -56.20965,4.456 c -0.031,-0.031 -0.0565,-2.52193 -0.0565,-5.5353 0,-4.69009 0.0177,-5.49357 0.12312,-5.58104 0.0937,-0.0777 1.08164,-0.0939 4.1275,-0.0675 3.75342,0.0325 4.04507,0.0459 4.6537,0.2136 1.61182,0.44404 2.28683,1.19306 2.30537,2.55815 0.0127,0.93234 -0.148,1.38795 -0.68488,1.94224 -0.24721,0.25524 -0.44948,0.4881 -0.44948,0.51747 0,0.0294 0.17371,0.17816 0.38602,0.33063 0.80107,0.57528 1.29234,1.72273 1.19301,2.78646 -0.10004,1.07124 -0.7103,1.93016 -1.70063,2.3936 -1.00054,0.46821 -1.31199,0.49501 -5.76978,0.49662 -2.23909,8.5e-4 -4.09646,-0.0239 -4.1275,-0.055 z m 8.25084,-1.79744 c 0.77817,-0.24192 1.18678,-0.7467 1.19332,-1.47417 0.008,-0.89438 -0.457,-1.38433 -1.49961,-1.57996 -0.32809,-0.0616 -1.43751,-0.0864 -3.13267,-0.0702 l -2.62466,0.0252 -0.0231,1.56012 c -0.0176,1.18928 0.002,1.57771 0.0847,1.63411 0.15728,0.10795 5.62776,0.0213 6.00209,-0.0951 z m 0.13647,-5.15311 c 0.48081,-0.25691 0.64378,-0.5891 0.59819,-1.21933 -0.0287,-0.39661 -0.0822,-0.54301 -0.27043,-0.73945 -0.41414,-0.43227 -0.75067,-0.47456 -3.77619,-0.47456 h -2.75166 l -0.0236,1.22377 c -0.013,0.67308 -0.004,1.27543 0.0204,1.33857 0.0362,0.0942 0.56351,0.11009 2.9446,0.0886 2.82423,-0.0255 2.90997,-0.0313 3.25864,-0.21756 z m 24.71735,6.95055 c -0.031,-0.031 -0.0564,-2.51898 -0.0564,-5.52873 0,-4.14334 0.0247,-5.49697 0.1016,-5.57389 0.0767,-0.0767 1.29968,-0.1016 4.98497,-0.1016 4.08126,0 4.89951,0.0195 4.98168,0.11847 0.0635,0.0765 0.0897,0.3992 0.0739,0.91017 l -0.0245,0.79169 -3.937,0.0423 -3.937,0.0423 v 1.31233 1.31233 l 3.3655,0.0221 3.3655,0.0221 v 0.88803 0.88803 l -3.28083,0.001 c -1.80446,6.8e-4 -3.32939,0.0321 -3.38873,0.0698 -0.0822,0.0522 -0.10236,0.4202 -0.0847,1.54387 l 0.0232,1.4754 4.02167,0.0423 4.02167,0.0423 0.0241,0.86783 0.0241,0.86783 h -5.1112 c -2.81114,0 -5.13658,-0.0254 -5.16762,-0.0564 z M 16.914872,147.66824 c -0.155906,-0.1559 -0.143999,-12.45401 0.0127,-13.11977 0.212133,-0.90126 0.900064,-1.74813 1.732604,-2.13289 l 0.395874,-0.18295 13.165666,-0.0423 13.165667,-0.0423 v -2.032 -2.032 l -14.219156,-0.0214 c -11.246427,-0.0169 -14.233174,-0.0435 -14.286204,-0.127 -0.07781,-0.12253 -0.09497,-5.23273 -0.01825,-5.43267 0.04662,-0.1215 1.603669,-0.13383 16.785167,-0.13292 17.946355,10e-4 17.209831,-0.016 17.908786,0.41595 0.426351,0.2635 0.888219,0.80991 1.141877,1.35089 l 0.223111,0.47583 0.02363,5.32504 c 0.02612,5.88663 0.03157,5.81573 -0.509721,6.62114 -0.151748,0.22578 -0.466405,0.55404 -0.699238,0.72944 -0.725977,0.54692 -0.964586,0.59728 -3.026833,0.63885 -1.012825,0.0204 -1.8415,0.0618 -1.8415,0.092 0,0.0302 2.13858,2.19376 4.752399,4.80789 2.814,2.81433 4.728582,4.79149 4.694004,4.84744 -0.04178,0.0676 -1.327738,0.0945 -4.51984,0.0945 h -4.461444 l -4.910393,-4.9111 -4.910393,-4.9111 -6.561667,0.0216 -6.561666,0.0216 -0.04233,4.86833 -0.04233,4.86833 -3.644014,0.0221 c -2.76367,0.0167 -3.668773,-0.003 -3.7465,-0.0804 z m 72.66213,0.006 c -0.0351,-0.0568 4.840343,-4.99032 12.123508,-12.26794 11.98275,-11.97364 12.19261,-12.17785 12.81721,-12.4724 1.22783,-0.57901 1.00282,-0.56478 8.91642,-0.56367 7.85228,10e-4 7.67111,-0.0102 8.41966,0.52522 0.22087,0.15799 0.54352,0.49474 0.717,0.74835 0.60395,0.8829 0.57359,0.21049 0.57359,12.70285 0,9.38953 -0.019,11.24825 -0.11562,11.32846 -0.0831,0.069 -1.13634,0.0898 -3.7465,0.0739 l -3.63088,-0.0221 -0.0219,-4.88949 -0.0219,-4.8895 h -8.61318 -8.61318 l -4.91332,4.91066 -4.913334,4.91067 h -4.459478 c -3.204887,0 -4.475988,-0.0267 -4.518186,-0.095 z M 125.47513,132.1389 c 0.11681,-0.0448 0.13392,-0.30325 0.13392,-2.02294 0,-1.71969 -0.0171,-1.97812 -0.13392,-2.02294 -0.0737,-0.0283 -1.71967,-0.0514 -3.65779,-0.0514 h -3.52386 l -2.01077,2.00439 c -1.10593,1.10242 -1.99132,2.03587 -1.96756,2.07434 0.0491,0.0795 10.95398,0.0976 11.15998,0.0185 z m 13.13026,15.51147 c -0.87812,-0.27877 -1.65577,-0.94415 -2.01682,-1.72569 l -0.18452,-0.39939 v -10.49866 -10.49867 l 0.18296,-0.39587 c 0.20918,-0.45264 0.76607,-1.0891 1.17297,-1.34058 0.71263,-0.44043 -0.0371,-0.42065 15.98072,-0.42163 l 14.88131,-9.2e-4 -0.0223,2.81517 -0.0223,2.81516 -12.319,0.0423 -12.319,0.0423 v 6.94267 6.94266 l 12.319,0.0423 12.319,0.0423 v 2.83633 2.83633 l -14.81667,0.0156 c -11.77702,0.0124 -14.88614,-0.006 -15.15533,-0.0919 z m 33.24949,0.0179 c -0.0793,-0.0793 -0.10249,-2.92539 -0.10249,-12.56696 0,-6.85546 0.0231,-12.52474 0.0514,-12.5984 0.0458,-0.1193 0.45701,-0.13392 3.76767,-0.13392 h 3.71627 v 4.86672 4.86672 l 0.1905,0.046 c 0.10477,0.0253 4.32435,0.0356 9.37683,0.0228 l 9.18634,-0.0232 0.0441,-4.86833 c 0.0242,-2.67759 0.0528,-4.87786 0.0635,-4.8895 0.0107,-0.0117 1.69595,-0.0212 3.74504,-0.0212 h 3.7256 l -0.0214,12.67883 -0.0215,12.67883 -3.63089,0.0221 c -2.61015,0.0159 -3.66338,-0.005 -3.7465,-0.0739 -0.0952,-0.079 -0.11561,-0.94508 -0.11561,-4.91158 v -4.81563 h -9.39731 -9.39732 l -0.0219,4.8895 -0.0219,4.88949 -3.64401,0.0221 c -2.76368,0.0167 -3.66878,-0.003 -3.7465,-0.0804 z M 62.551872,147.55402 c -0.909618,-0.24692 -1.495776,-0.72315 -1.899763,-1.54347 l -0.278723,-0.56596 -0.0233,-3.72732 c -0.02102,-3.36251 -0.0371,-3.73767 -0.164349,-3.83314 -0.107276,-0.0805 -0.940415,-0.10584 -3.479527,-0.10584 h -3.338477 l 0.13734,-0.1905 c 0.223738,-0.31034 0.618016,-1.09646 0.73251,-1.4605 0.0619,-0.1968 0.128007,-1.06571 0.157825,-2.07433 l 0.05131,-1.73567 2.829055,-0.0223 c 1.863408,-0.0147 2.866535,-0.0534 2.938861,-0.11346 0.08624,-0.0716 0.115061,-0.89374 0.134279,-3.83001 l 0.02447,-3.73887 0.224194,-0.4782 c 0.284897,-0.60767 0.769942,-1.09271 1.445512,-1.44551 l 0.531627,-0.27763 23.876,-0.0202 23.876004,-0.0202 -2.32833,2.31138 c -2.12827,2.11278 -2.3829,2.33782 -2.96334,2.61899 -0.34925,0.16918 -0.91999,0.38594 -1.2683,0.48169 -0.62968,0.17308 -0.73429,0.17408 -18.306187,0.17408 -17.386014,0 -17.674312,0.003 -17.760535,0.16377 -0.05267,0.0984 -0.08764,0.89467 -0.08764,1.99523 0,1.10056 0.03498,1.89682 0.08764,1.99523 0.08619,0.16104 0.358434,0.16377 16.340667,0.16377 8.939159,0 16.253025,0.0302 16.253025,0.0671 0,0.0369 -1.000129,1.05944 -2.222504,2.27235 -2.365925,2.3476 -2.630889,2.55281 -3.80376,2.94603 l -0.649926,0.21789 H 80.748005 c -11.586678,0 -12.882786,0.0133 -13.002571,0.13305 -0.112887,0.11289 -0.133048,0.41523 -0.133048,1.99523 0,1.12174 0.03485,1.92731 0.08764,2.02595 0.08598,0.16067 0.3028,0.16377 11.43,0.16377 6.238295,0 11.342355,0.0302 11.342355,0.0671 0,0.0369 -1.000125,1.05944 -2.2225,2.27235 -2.365409,2.34708 -2.609227,2.53592 -3.831167,2.9672 l -0.677333,0.23906 -10.371667,0.0166 c -8.768558,0.014 -10.440631,-0.002 -10.817847,-0.10453 z m -58.9474994,-12.49717 -1.36e-5,-2.82422 6.365713,0.0228 c 3.501142,0.0125 6.379487,0.0365 6.396322,0.0534 0.01684,0.0168 -0.09257,0.21312 -0.243123,0.4362 -0.150552,0.22308 -0.369439,0.65626 -0.486414,0.96264 -0.197093,0.51621 -0.215098,0.68581 -0.245642,2.31387 l -0.03296,1.75683 H 9.6152454 c -3.1586555,0 -5.8032761,0.0231 -5.8769346,0.0514 -0.1204722,0.0462 -0.1339261,-0.23229 -0.1339382,-2.77283 z"
         id="path4539"
         inkscape:connector-curvature="0" />
      <path
         style="fill:#fff;stroke-width:0.08466666"
         d="m 115.70305,166.14105 c -0.78327,-0.12605 -1.95189,-0.50076 -2.57918,-0.82699 -0.34569,-0.17978 -0.81338,-0.5253 -1.11404,-0.82304 -0.52336,-0.51824 -0.99846,-1.29168 -0.89344,-1.45445 0.0594,-0.0921 1.68136,-0.62028 1.90482,-0.62028 0.0704,0 0.20759,0.12873 0.30483,0.28607 0.2126,0.34399 0.82554,0.92183 1.16083,1.09435 1.35455,0.69696 4.00413,0.74787 5.2798,0.10144 0.21815,-0.11054 0.52128,-0.34296 0.67364,-0.51648 0.24863,-0.28318 0.27252,-0.35527 0.23323,-0.70381 -0.0357,-0.31676 -0.10276,-0.43931 -0.36395,-0.6651 -0.46045,-0.39802 -1.10708,-0.56546 -3.48592,-0.90264 -2.95906,-0.41942 -3.85437,-0.73127 -4.67394,-1.62802 -0.54284,-0.59396 -0.71316,-1.10234 -0.6625,-1.9775 0.069,-1.19254 0.60526,-1.94149 1.79434,-2.50619 0.80996,-0.38465 1.55787,-0.53692 2.92948,-0.59643 2.44716,-0.10618 4.31319,0.376 5.43978,1.40564 0.46996,0.42953 1.07203,1.40612 0.94052,1.52559 -0.04,0.0363 -0.48325,0.20181 -0.98512,0.36783 l -0.91249,0.30186 -0.21897,-0.34687 c -0.65304,-1.03448 -1.84209,-1.50692 -3.78433,-1.5036 -1.49193,0.003 -2.50816,0.32422 -2.91028,0.92121 -0.3527,0.52364 -0.17853,1.02555 0.47087,1.35684 0.47108,0.24033 0.81682,0.31372 3.01836,0.64073 3.07817,0.45721 4.14733,0.82061 4.90999,1.66889 0.51451,0.57224 0.66479,1.06973 0.61772,2.04479 -0.045,0.93303 -0.25071,1.42883 -0.83657,2.01666 -0.4885,0.49014 -1.19905,0.8552 -2.2164,1.13871 -0.66198,0.18448 -0.99492,0.22219 -2.17841,0.24674 -0.76835,0.0159 -1.60655,-0.005 -1.86267,-0.046 z m 16.84867,0.0283 c -0.58199,-0.0774 -1.8289,-0.46921 -2.32833,-0.73157 -1.08401,-0.56945 -1.91606,-1.71974 -2.15497,-2.97917 -0.0653,-0.34448 -0.0883,-1.67989 -0.0714,-4.14866 l 0.025,-3.64067 h 1.016 1.016 l 0.0469,3.683 c 0.05,3.9255 0.0558,3.97958 0.49827,4.67728 0.5208,0.82121 1.45448,1.23259 2.97473,1.31065 2.25237,0.11565 3.56764,-0.57598 4.06129,-2.1356 0.0757,-0.23922 0.12202,-1.39525 0.15765,-3.937 l 0.0505,-3.59833 h 1.016 1.016 v 3.76767 c 0,4.10998 -0.0173,4.28158 -0.52105,5.27569 -0.40398,0.79722 -1.31012,1.59584 -2.21117,1.94881 -0.99338,0.38913 -1.64921,0.50486 -2.98247,0.52626 -0.72178,0.0116 -1.44568,0.003 -1.60867,-0.0184 z m 34.163,-0.0235 c -1.5729,-0.25924 -2.8026,-0.77904 -3.62435,-1.53202 -0.54483,-0.49923 -1.1622,-1.4702 -1.02028,-1.60463 0.0857,-0.0812 1.73004,-0.59293 1.90526,-0.59293 0.0663,0 0.18263,0.10514 0.25854,0.23364 0.23421,0.39649 0.8498,0.94901 1.30601,1.17222 0.68365,0.33447 1.26483,0.4611 2.3624,0.51473 2.0706,0.10116 3.61684,-0.50612 3.73432,-1.46664 0.0542,-0.44302 -0.19029,-0.815 -0.7081,-1.0774 -0.59063,-0.29929 -0.88634,-0.36339 -3.17509,-0.6882 -2.79889,-0.39722 -3.769,-0.71889 -4.56317,-1.51306 -0.51699,-0.517 -0.68987,-0.91924 -0.73273,-1.70496 -0.0441,-0.80842 0.0593,-1.24173 0.42717,-1.789 0.81318,-1.2099 2.57764,-1.78783 5.18469,-1.69821 2.65535,0.0913 4.24869,0.7488 5.13405,2.11861 0.50504,0.78141 0.48946,0.81161 -0.60573,1.17343 l -0.93267,0.30813 -0.14683,-0.21301 c -0.79854,-1.15852 -1.56629,-1.51619 -3.4533,-1.60875 -2.38555,-0.11702 -3.88137,0.64822 -3.42425,1.7518 0.22714,0.54837 0.77813,0.72039 3.76739,1.17621 1.22484,0.18677 2.50937,0.43316 2.89574,0.55545 1.25696,0.39784 2.15507,1.18487 2.40402,2.10669 0.0523,0.19359 0.0791,0.65679 0.0596,1.02932 -0.085,1.6232 -1.10504,2.63699 -3.20036,3.18073 -0.56378,0.1463 -1.01309,0.19226 -2.07433,0.21219 -0.74507,0.014 -1.54517,-0.006 -1.778,-0.0443 z m 38.57814,-0.25825 -1.13052,-0.0423 -0.52085,-1.143 c -0.28646,-0.62865 -0.55149,-1.19062 -0.58896,-1.24883 -0.0526,-0.0816 -0.81147,-0.10584 -3.32086,-0.10584 h -3.25271 l -0.12159,0.1905 c -0.0669,0.10478 -0.33992,0.67628 -0.60678,1.27 l -0.4852,1.0795 h -1.13084 c -0.62196,0 -1.13083,-0.0151 -1.13083,-0.0336 0,-0.1065 5.45721,-11.11098 5.53546,-11.16229 0.17281,-0.11329 2.40598,-0.0763 2.4796,0.041 0.0365,0.0582 0.90905,1.83938 1.93897,3.95817 1.02991,2.11878 2.24186,4.60982 2.69323,5.53565 0.45136,0.92583 0.80979,1.68783 0.79653,1.69333 -0.0133,0.006 -0.53286,-0.009 -1.15465,-0.0323 z m -3.26704,-4.51244 c 0.0453,-0.11795 -2.01633,-4.59611 -2.20543,-4.7906 -0.13705,-0.14095 -0.0962,-0.21631 -1.44004,2.6579 -0.53658,1.14766 -0.95394,2.12171 -0.92746,2.16456 0.0274,0.0443 1.01611,0.0779 2.28948,0.0779 1.75795,0 2.25042,-0.0237 2.28345,-0.10978 z m -56.20965,4.456 c -0.031,-0.031 -0.0565,-2.52193 -0.0565,-5.5353 0,-4.69009 0.0177,-5.49357 0.12312,-5.58104 0.0937,-0.0777 1.08164,-0.0939 4.1275,-0.0675 3.75342,0.0325 4.04507,0.0459 4.6537,0.2136 1.61182,0.44404 2.28683,1.19306 2.30537,2.55815 0.0127,0.93234 -0.148,1.38795 -0.68488,1.94224 -0.24721,0.25524 -0.44948,0.4881 -0.44948,0.51747 0,0.0294 0.17371,0.17816 0.38602,0.33063 0.80107,0.57528 1.29234,1.72273 1.19301,2.78646 -0.10004,1.07124 -0.7103,1.93016 -1.70063,2.3936 -1.00054,0.46821 -1.31199,0.49501 -5.76978,0.49662 -2.23909,8.5e-4 -4.09646,-0.0239 -4.1275,-0.055 z m 8.25084,-1.79744 c 0.77817,-0.24192 1.18678,-0.7467 1.19332,-1.47417 0.008,-0.89438 -0.457,-1.38433 -1.49961,-1.57996 -0.32809,-0.0616 -1.43751,-0.0864 -3.13267,-0.0702 l -2.62466,0.0252 -0.0231,1.56012 c -0.0176,1.18928 0.002,1.57771 0.0847,1.63411 0.15728,0.10795 5.62776,0.0213 6.00209,-0.0951 z m 0.13647,-5.15311 c 0.48081,-0.25691 0.64378,-0.5891 0.59819,-1.21933 -0.0287,-0.39661 -0.0822,-0.54301 -0.27043,-0.73945 -0.41414,-0.43227 -0.75067,-0.47456 -3.77619,-0.47456 h -2.75166 l -0.0236,1.22377 c -0.013,0.67308 -0.004,1.27543 0.0204,1.33857 0.0362,0.0942 0.56351,0.11009 2.9446,0.0886 2.82423,-0.0255 2.90997,-0.0313 3.25864,-0.21756 z m 24.71735,6.95055 c -0.031,-0.031 -0.0564,-2.51898 -0.0564,-5.52873 0,-4.14334 0.0247,-5.49697 0.1016,-5.57389 0.0767,-0.0767 1.29968,-0.1016 4.98497,-0.1016 4.08126,0 4.89951,0.0195 4.98168,0.11847 0.0635,0.0765 0.0897,0.3992 0.0739,0.91017 l -0.0245,0.79169 -3.937,0.0423 -3.937,0.0423 v 1.31233 1.31233 l 3.3655,0.0221 3.3655,0.0221 v 0.88803 0.88803 l -3.28083,0.001 c -1.80446,6.8e-4 -3.32939,0.0321 -3.38873,0.0698 -0.0822,0.0522 -0.10236,0.4202 -0.0847,1.54387 l 0.0232,1.4754 4.02167,0.0423 4.02167,0.0423 0.0241,0.86783 0.0241,0.86783 h -5.1112 c -2.81114,0 -5.13658,-0.0254 -5.16762,-0.0564 z M 16.938012,147.4947 c -0.02606,-0.10528 -0.03642,-3.04891 -0.02301,-6.54141 l 0.02438,-6.35 0.204269,-0.50737 c 0.278439,-0.69161 0.977958,-1.38977 1.641032,-1.63786 l 0.489385,-0.1831 h 12.986233 c 7.142427,0 13.046498,-0.0231 13.120156,-0.0514 0.117058,-0.0449 0.133925,-0.31151 0.133925,-2.11667 0,-1.1359 -0.0095,-2.07452 -0.02117,-2.08583 -0.01164,-0.0113 -6.441016,-0.0399 -14.2875,-0.0635 l -14.266333,-0.0429 -0.02232,-2.77366 -0.02232,-2.77366 16.870991,0.022 16.870991,0.022 0.502731,0.24651 c 0.640297,0.31395 1.184589,0.85824 1.472528,1.47252 l 0.226075,0.48231 0.02362,5.32504 c 0.026,5.86121 0.03045,5.80173 -0.49222,6.59081 -0.144946,0.21883 -0.447155,0.53266 -0.671576,0.6974 -0.731155,0.53672 -0.93587,0.57787 -3.071996,0.61746 -1.059392,0.0196 -1.926167,0.0608 -1.926167,0.0914 0,0.0307 2.1336,2.18909 4.741334,4.79651 2.607733,2.60742 4.741333,4.78852 4.741333,4.84688 0,0.0837 -0.934572,0.10612 -4.422139,0.10612 h -4.42214 l -4.91333,-4.91066 -4.913331,-4.91067 h -6.581864 c -3.620024,0 -6.590607,0.01 -6.601294,0.0212 -0.01069,0.0116 -0.03926,2.21191 -0.0635,4.8895 l -0.04407,4.86833 -3.617659,0.0221 -3.617658,0.0221 z m 45.61386,0.0593 c -0.909618,-0.24692 -1.495776,-0.72315 -1.899763,-1.54347 l -0.278723,-0.56596 -0.0233,-3.72732 c -0.02102,-3.36251 -0.0371,-3.73767 -0.164349,-3.83314 -0.107276,-0.0805 -0.940415,-0.10584 -3.479527,-0.10584 h -3.338477 l 0.13734,-0.1905 c 0.223738,-0.31034 0.618016,-1.09646 0.73251,-1.4605 0.0619,-0.1968 0.128007,-1.06571 0.157825,-2.07433 l 0.05131,-1.73567 2.829055,-0.0223 c 1.863408,-0.0147 2.866535,-0.0534 2.938861,-0.11346 0.08624,-0.0716 0.115061,-0.89374 0.134279,-3.83001 l 0.02447,-3.73887 0.224194,-0.4782 c 0.284897,-0.60767 0.769942,-1.09271 1.445512,-1.44551 l 0.531627,-0.27763 23.876,-0.0202 23.876004,-0.0202 -2.32833,2.31138 c -2.12827,2.11278 -2.3829,2.33782 -2.96334,2.61899 -0.34925,0.16918 -0.91999,0.38594 -1.2683,0.48169 -0.62968,0.17308 -0.73429,0.17408 -18.306187,0.17408 -17.386014,0 -17.674312,0.003 -17.760535,0.16377 -0.05267,0.0984 -0.08764,0.89467 -0.08764,1.99523 0,1.10056 0.03498,1.89682 0.08764,1.99523 0.08619,0.16104 0.358434,0.16377 16.340667,0.16377 8.939159,0 16.253025,0.0302 16.253025,0.0671 0,0.0369 -1.000129,1.05944 -2.222504,2.27235 -2.365925,2.3476 -2.630889,2.55281 -3.80376,2.94603 L 93.61753,137.7784 H 80.748005 c -11.586678,0 -12.882786,0.0133 -13.002571,0.13305 -0.112887,0.11289 -0.133048,0.41523 -0.133048,1.99523 0,1.12174 0.03485,1.92731 0.08764,2.02595 0.08598,0.16067 0.3028,0.16377 11.43,0.16377 6.238295,0 11.342355,0.0302 11.342355,0.0671 0,0.0369 -1.000125,1.05944 -2.2225,2.27235 -2.365409,2.34708 -2.609227,2.53592 -3.831167,2.9672 l -0.677333,0.23906 -10.371667,0.0166 c -8.768558,0.014 -10.440631,-0.002 -10.817847,-0.10453 z m 27.158514,0.0237 c 0,-0.0586 5.419725,-5.52075 12.043834,-12.13814 12.807,-12.794 12.24624,-12.26717 13.61017,-12.78653 l 0.635,-0.2418 h 7.40833 7.40833 l 0.51546,0.26947 c 0.66138,0.34575 1.32367,1.06219 1.53058,1.65572 0.14765,0.42355 0.1553,1.00824 0.1553,11.87548 v 11.43 h -3.64067 -3.64067 l -0.0423,-4.86833 -0.0423,-4.86834 -8.63463,-0.0216 -8.63462,-0.0216 -4.91374,4.91107 -4.913734,4.91107 h -4.42214 c -3.496716,0 -4.42214,-0.0223 -4.42214,-0.10653 z m 35.881734,-15.4044 c 0.14422,-0.14422 0.14422,-3.97058 0,-4.1148 -0.0758,-0.0758 -1.01428,-0.1016 -3.70065,-0.1016 h -3.59906 l -2.06839,2.06348 c -1.2342,1.23127 -2.04457,2.102 -2.00934,2.159 0.0875,0.14153 11.23578,0.13558 11.37744,-0.006 z m 12.99515,15.38822 c -0.83375,-0.26085 -1.5694,-0.8919 -1.91759,-1.64493 l -0.18096,-0.39136 V 135.02657 124.5279 l 0.19848,-0.39932 c 0.2983,-0.60012 0.78619,-1.10359 1.38302,-1.42718 l 0.53517,-0.29017 14.96483,-0.0223 14.96483,-0.0223 v 2.79515 2.79515 h -12.2274 c -6.72508,0 -12.28768,0.0231 -12.36134,0.0514 -0.12062,0.0463 -0.13392,0.74349 -0.13392,7.01828 0,6.27478 0.0133,6.97198 0.13392,7.01827 0.0737,0.0283 5.63678,0.0514 12.3625,0.0514 h 12.22855 l -0.0223,2.77283 -0.0223,2.77284 -14.77433,0.0156 c -12.02535,0.0127 -14.84072,-0.005 -15.13112,-0.096 z m 33.30713,0.0672 c -0.0315,-0.0315 -0.0573,-5.72789 -0.0573,-12.65856 v -12.60122 h 3.683 3.683 v 4.8514 c 0,3.66042 0.025,4.87634 0.1016,4.953 0.0778,0.0778 2.26941,0.1016 9.34874,0.1016 5.08593,0 9.30741,-0.0231 9.38107,-0.0514 0.11999,-0.0461 0.13393,-0.56148 0.13393,-4.953 v -4.90161 h 3.68328 3.68327 l -0.0214,12.6365 -0.0214,12.6365 -3.59276,0.0221 c -2.81803,0.0173 -3.60738,-9.3e-4 -3.66054,-0.0847 -0.0373,-0.0587 -0.0684,-2.26911 -0.0691,-4.91196 l -0.001,-4.8052 -9.4615,0.0215 -9.4615,0.0215 -0.0423,4.86834 -0.0423,4.86833 -3.60449,0.0221 c -1.98247,0.0121 -3.63029,-0.004 -3.66183,-0.0353 z M 3.6043726,135.05685 l -1.36e-5,-2.82422 6.365713,0.0228 c 3.501142,0.0125 6.379487,0.0365 6.396322,0.0534 0.01684,0.0168 -0.09257,0.21312 -0.243123,0.4362 -0.150552,0.22308 -0.369439,0.65626 -0.486414,0.96264 -0.197093,0.51621 -0.215098,0.68581 -0.245642,2.31387 l -0.03296,1.75683 H 9.6152454 c -3.1586555,0 -5.8032761,0.0231 -5.8769346,0.0514 -0.1204722,0.0462 -0.1339261,-0.23229 -0.1339382,-2.77283 z"
         id="path4537"
         inkscape:connector-curvature="0" />
      <path
         style="fill:#fff;stroke-width:0.08466666"
         d="m 115.976,166.1698 c -0.25107,-0.0209 -0.42501,-0.0723 -0.39716,-0.11735 0.0272,-0.0441 -0.0408,-0.0802 -0.15117,-0.0802 -0.35277,0 -1.51627,-0.34072 -2.02438,-0.59283 -1.03263,-0.51234 -1.66034,-1.0832 -2.06803,-1.88073 -0.19022,-0.37212 -0.19402,-0.40448 -0.056,-0.47673 0.20317,-0.10635 1.58493,-0.52156 1.72667,-0.51886 0.0631,0.001 0.24151,0.18907 0.39641,0.41749 0.71698,1.05721 2.38759,1.6248 4.41735,1.50079 2.37467,-0.14507 3.69258,-1.40754 2.54555,-2.43847 -0.48334,-0.43442 -1.17317,-0.62277 -3.39222,-0.92621 -2.22931,-0.30486 -2.79305,-0.42985 -3.60652,-0.79963 -0.69796,-0.31728 -1.22115,-0.75937 -1.53749,-1.29916 -0.32147,-0.54856 -0.37051,-1.62214 -0.10613,-2.32344 0.34446,-0.91374 1.20355,-1.55387 2.60796,-1.94327 0.56647,-0.15706 0.8814,-0.18132 2.38818,-0.18391 1.52667,-0.003 1.82702,0.02 2.49425,0.18795 1.05646,0.26591 1.93239,0.7066 2.46696,1.24117 0.51446,0.51446 0.93873,1.26762 0.77412,1.3742 -0.0577,0.0374 -0.4724,0.18589 -0.92145,0.33 l -0.81647,0.26203 -0.28505,-0.4236 c -0.33871,-0.50331 -0.93738,-0.93794 -1.54007,-1.11807 -1.37485,-0.41092 -3.35949,-0.38425 -4.38985,0.059 -1.11716,0.48059 -1.30322,1.56667 -0.34984,2.0421 0.55201,0.27527 0.85307,0.34122 3.16007,0.69224 2.3545,0.35825 2.89127,0.48148 3.69119,0.8474 0.76024,0.34778 1.23595,0.77661 1.53143,1.38056 0.20082,0.41046 0.23141,0.57307 0.22554,1.19892 -0.008,0.81908 -0.14042,1.25914 -0.55311,1.8338 -0.47913,0.66719 -1.56932,1.27171 -2.69372,1.4937 -0.25611,0.0506 -0.4886,0.1263 -0.51664,0.16831 -0.0557,0.0835 -2.30271,0.1525 -3.02041,0.0928 z m 16.67933,-0.006 c -0.25237,-0.0176 -0.42515,-0.0661 -0.39716,-0.11134 0.0272,-0.0441 -0.0439,-0.0802 -0.1582,-0.0802 -0.11426,0 -0.46893,-0.0799 -0.78817,-0.17761 -1.71471,-0.52469 -2.72743,-1.55284 -3.14008,-3.18789 -0.12453,-0.49342 -0.1446,-1.06891 -0.14695,-4.21217 l -0.003,-3.64067 h 0.97367 0.97366 l 0.0438,3.64067 c 0.0432,3.58931 0.0466,3.6478 0.24586,4.14604 0.50339,1.25906 1.76778,1.91154 3.68968,1.90403 1.83561,-0.007 3.04132,-0.60095 3.58819,-1.76708 l 0.2218,-0.47299 0.0423,-3.72533 0.0423,-3.72533 h 0.97366 0.97367 l 0.0221,3.53579 c 0.0248,3.9702 -0.009,4.3088 -0.52914,5.36645 -0.5176,1.05165 -1.56255,1.84018 -2.89184,2.18223 -0.28613,0.0736 -0.6027,0.13386 -0.70351,0.13386 -0.10079,0 -0.16307,0.0327 -0.13837,0.0727 0.0902,0.14599 -1.54406,0.2131 -2.89463,0.11885 z m 34.27106,-0.0222 c -0.25612,-0.0314 -0.42757,-0.0659 -0.381,-0.0768 0.0466,-0.0109 -0.23919,-0.0886 -0.635,-0.17269 -1.33166,-0.28299 -2.36935,-0.82912 -3.08248,-1.62229 -0.34249,-0.38094 -0.79069,-1.14178 -0.71605,-1.21552 0.017,-0.0168 0.44537,-0.15727 0.952,-0.31223 l 0.92115,-0.28173 0.2201,0.29547 c 0.57999,0.7786 1.25507,1.21815 2.29794,1.49621 0.78761,0.21001 2.81022,0.2075 3.51367,-0.004 1.07025,-0.32232 1.62914,-0.77861 1.7099,-1.39599 0.0603,-0.46096 -0.23099,-0.8386 -0.91005,-1.17986 -0.50268,-0.25262 -0.76981,-0.30968 -2.84293,-0.60723 -2.46399,-0.35366 -3.01802,-0.48048 -3.78846,-0.86716 -1.09855,-0.55135 -1.68417,-1.39771 -1.68678,-2.43779 -0.004,-1.80343 1.19742,-2.86149 3.65956,-3.2215 1.01183,-0.14795 3.14045,-0.059 4.06203,0.1698 0.82966,0.20596 1.59293,0.5519 2.14102,0.9704 0.41471,0.31665 1.08471,1.23748 1.08471,1.49078 0,0.1179 -0.20019,0.21922 -0.88863,0.44975 l -0.88863,0.29758 -0.29293,-0.43824 c -0.63276,-0.94665 -1.84996,-1.40671 -3.72948,-1.40959 -0.967,-0.001 -1.69993,0.13379 -2.29792,0.42411 -0.57136,0.27739 -0.79234,0.53863 -0.84882,1.00346 -0.0508,0.41785 0.19436,0.78291 0.67851,1.01049 0.51085,0.24013 0.79876,0.30022 3.12382,0.652 1.99069,0.30118 2.94527,0.51401 3.59609,0.80176 0.86741,0.38351 1.47658,0.99372 1.71142,1.71435 0.16639,0.51055 0.12406,1.49234 -0.0889,2.06146 -0.23151,0.61876 -0.83414,1.27426 -1.49559,1.6268 -0.49829,0.26559 -1.59697,0.60925 -1.94775,0.60925 -0.10846,0 -0.177,0.0327 -0.1523,0.0727 0.0984,0.15923 -1.94907,0.22525 -2.99824,0.0967 z m -21.04019,-0.35225 c -0.0239,-0.0624 -0.0335,-2.57086 -0.0214,-5.57441 l 0.0219,-5.461 4.064,0.002 c 3.55291,0.002 4.13597,0.0204 4.63625,0.14713 0.78419,0.19871 1.31822,0.48621 1.72712,0.92981 0.4528,0.49124 0.57952,0.87916 0.57399,1.75728 -0.006,0.87323 -0.20748,1.36154 -0.76683,1.8539 -0.20398,0.17955 -0.37086,0.36417 -0.37086,0.41028 0,0.0461 0.18097,0.22427 0.40216,0.3959 1.43915,1.11672 1.61665,3.31046 0.36276,4.48333 -0.49661,0.46451 -0.92816,0.68909 -1.76661,0.91932 -0.60856,0.16711 -0.90569,0.18055 -4.73423,0.21404 -3.36029,0.0294 -4.09261,0.0156 -4.12827,-0.0777 z m 8.23614,-1.72417 c 0.81973,-0.24343 1.20471,-0.74962 1.20471,-1.58401 0,-0.88741 -0.55663,-1.42295 -1.651,-1.58843 -0.34821,-0.0527 -1.65779,-0.08 -3.175,-0.0662 l -2.58233,0.0234 -0.0232,1.56361 c -0.0127,0.85998 -0.004,1.61246 0.0185,1.67216 0.0664,0.17299 5.61845,0.15463 6.20826,-0.0205 z m 0.0383,-5.09332 c 0.51128,-0.23619 0.74253,-0.60067 0.74225,-1.16992 0,-0.67583 -0.25394,-1.03305 -0.9278,-1.30682 -0.40761,-0.16561 -5.78661,-0.24379 -5.9757,-0.0869 -0.0977,0.0811 -0.12299,0.36711 -0.12299,1.38993 0,0.70832 0.0276,1.31549 0.0614,1.34926 0.0338,0.0338 1.35774,0.0496 2.94216,0.0353 2.75288,-0.025 2.89852,-0.0343 3.28068,-0.21087 z m 24.82758,6.81058 c -0.0224,-0.0586 -0.0308,-2.56395 -0.0188,-5.5675 l 0.0219,-5.461 h 4.953 4.953 v 0.80433 0.80433 l -3.937,0.0423 -3.937,0.0423 -0.0233,1.3214 c -0.0182,1.03417 0.002,1.34222 0.0921,1.41716 0.0804,0.0667 1.11366,0.10248 3.40992,0.11793 l 3.29454,0.0222 v 0.80433 0.80433 l -3.38667,0.0423 -3.38666,0.0423 -0.0232,1.47053 c -0.016,1.01274 0.007,1.50695 0.0739,1.5875 0.0801,0.0965 0.79309,0.11697 4.06912,0.11697 h 3.97202 l -0.0242,0.8255 -0.0242,0.8255 -5.0189,0.0218 c -3.9701,0.0173 -5.0274,-4.2e-4 -5.05961,-0.0847 z m 14.16066,0.0443 c -0.0312,-0.0551 4.88954,-10.1523 5.30443,-10.88463 l 0.13323,-0.23518 1.1882,0.0235 1.1882,0.0235 2.66673,5.48821 c 1.46669,3.01852 2.66673,5.5236 2.66673,5.56684 0,0.0925 -1.86168,0.10542 -1.99668,0.0138 -0.0504,-0.0342 -0.30988,-0.53846 -0.57658,-1.12054 -0.2667,-0.58208 -0.54065,-1.14406 -0.60878,-1.24883 l -0.12387,-0.1905 h -3.30372 -3.30371 l -0.39763,0.86783 c -0.2187,0.47731 -0.49327,1.05833 -0.61017,1.29117 l -0.21253,0.42333 -0.98821,0.0238 c -0.54352,0.0131 -1.00506,-0.006 -1.02564,-0.0423 z m 8.9699,-4.38847 c 0.0493,-0.12848 -2.13373,-4.91477 -2.284,-5.00764 -0.0407,-0.0252 -0.12566,0.006 -0.18884,0.0701 -0.19454,0.19619 -2.33628,4.83061 -2.28916,4.9534 0.0359,0.0936 0.48545,0.11545 2.37795,0.11545 2.03054,0 2.34019,-0.0171 2.38405,-0.13134 z M 16.938012,147.4947 c -0.02606,-0.10528 -0.03642,-3.04891 -0.02301,-6.54141 l 0.02438,-6.35 0.204269,-0.50737 c 0.278439,-0.69161 0.977958,-1.38977 1.641032,-1.63786 l 0.489385,-0.1831 h 12.986233 c 7.142427,0 13.046498,-0.0231 13.120156,-0.0514 0.117058,-0.0449 0.133925,-0.31151 0.133925,-2.11667 0,-1.1359 -0.0095,-2.07452 -0.02117,-2.08583 -0.01164,-0.0113 -6.441016,-0.0399 -14.2875,-0.0635 l -14.266333,-0.0429 -0.02232,-2.77366 -0.02232,-2.77366 16.870991,0.022 16.870991,0.022 0.502731,0.24651 c 0.640297,0.31395 1.184589,0.85824 1.472528,1.47252 l 0.226075,0.48231 0.02362,5.32504 c 0.026,5.86121 0.03045,5.80173 -0.49222,6.59081 -0.144946,0.21883 -0.447155,0.53266 -0.671576,0.6974 -0.731155,0.53672 -0.93587,0.57787 -3.071996,0.61746 -1.059392,0.0196 -1.926167,0.0608 -1.926167,0.0914 0,0.0307 2.1336,2.18909 4.741334,4.79651 2.607733,2.60742 4.741333,4.78852 4.741333,4.84688 0,0.0837 -0.934572,0.10612 -4.422139,0.10612 h -4.42214 l -4.91333,-4.91066 -4.913331,-4.91067 h -6.581864 c -3.620024,0 -6.590607,0.01 -6.601294,0.0212 -0.01069,0.0116 -0.03926,2.21191 -0.0635,4.8895 l -0.04407,4.86833 -3.617659,0.0221 -3.617658,0.0221 z m 72.772374,0.0831 c 0,-0.0586 5.419725,-5.52075 12.043834,-12.13814 12.807,-12.794 12.24624,-12.26717 13.61017,-12.78653 l 0.635,-0.2418 h 7.40833 7.40833 l 0.51546,0.26947 c 0.66138,0.34575 1.32367,1.06219 1.53058,1.65572 0.14765,0.42355 0.1553,1.00824 0.1553,11.87548 v 11.43 h -3.64067 -3.64067 l -0.0423,-4.86833 -0.0423,-4.86834 -8.63463,-0.0216 -8.63462,-0.0216 -4.91374,4.91107 -4.913734,4.91107 h -4.42214 c -3.496716,0 -4.42214,-0.0223 -4.42214,-0.10653 z m 35.881734,-15.4044 c 0.14422,-0.14422 0.14422,-3.97058 0,-4.1148 -0.0758,-0.0758 -1.01428,-0.1016 -3.70065,-0.1016 h -3.59906 l -2.06839,2.06348 c -1.2342,1.23127 -2.04457,2.102 -2.00934,2.159 0.0875,0.14153 11.23578,0.13558 11.37744,-0.006 z m 12.99515,15.38822 c -0.83375,-0.26085 -1.5694,-0.8919 -1.91759,-1.64493 l -0.18096,-0.39136 V 135.02667 124.528 l 0.19848,-0.39932 c 0.2983,-0.60012 0.78619,-1.10359 1.38302,-1.42718 l 0.53517,-0.29017 14.96483,-0.0223 14.96483,-0.0223 v 2.79515 2.79515 h -12.2274 c -6.72508,0 -12.28768,0.0231 -12.36134,0.0514 -0.12062,0.0463 -0.13392,0.74349 -0.13392,7.01828 0,6.27478 0.0133,6.97198 0.13392,7.01827 0.0737,0.0283 5.63678,0.0514 12.3625,0.0514 h 12.22855 l -0.0223,2.77283 -0.0223,2.77284 -14.77433,0.0156 c -12.02535,0.0127 -14.84072,-0.005 -15.13112,-0.096 z m 33.30713,0.0672 c -0.0315,-0.0315 -0.0573,-5.72789 -0.0573,-12.65856 v -12.60122 h 3.683 3.683 v 4.8514 c 0,3.66042 0.025,4.87634 0.1016,4.953 0.0778,0.0778 2.26941,0.1016 9.34874,0.1016 5.08593,0 9.30741,-0.0231 9.38107,-0.0514 0.11999,-0.0461 0.13393,-0.56148 0.13393,-4.953 v -4.90161 h 3.68328 3.68327 l -0.0214,12.6365 -0.0214,12.6365 -3.59276,0.0221 c -2.81803,0.0173 -3.60738,-9.3e-4 -3.66054,-0.0847 -0.0373,-0.0587 -0.0684,-2.26911 -0.0691,-4.91196 l -0.001,-4.8052 -9.4615,0.0215 -9.4615,0.0215 -0.0423,4.86834 -0.0423,4.86833 -3.60449,0.0221 c -1.98247,0.0121 -3.63029,-0.004 -3.66183,-0.0353 z M 62.594571,147.5075 c -0.81462,-0.19192 -1.540003,-0.79454 -1.912324,-1.58868 l -0.224194,-0.4782 -0.0453,-3.80999 c -0.02492,-2.0955 -0.05349,-3.81953 -0.0635,-3.83117 -0.01001,-0.0116 -1.542197,-0.0212 -3.404864,-0.0212 -1.862667,0 -3.386667,-0.0161 -3.386667,-0.0358 0,-0.0197 0.150657,-0.31514 0.334794,-0.65652 0.492837,-0.91368 0.59382,-1.46051 0.595288,-3.22348 l 0.0013,-1.50283 h 2.875688 c 2.756455,0 2.879321,-0.007 2.963333,-0.16377 0.05647,-0.10553 0.08765,-1.44433 0.08765,-3.76449 0,-3.45937 0.0071,-3.61996 0.179666,-4.09073 0.228162,-0.62227 1.058676,-1.48133 1.584383,-1.63884 0.19089,-0.0572 0.330027,-0.13156 0.309193,-0.16527 -0.02083,-0.0337 0.104239,-0.0848 0.27794,-0.1135 0.1737,-0.0287 10.929788,-0.0526 23.902418,-0.0531 l 23.586605,-9.3e-4 -2.1479,2.13783 c -1.18134,1.17581 -2.36321,2.2797 -2.62638,2.4531 -0.26317,0.17339 -0.80468,0.44009 -1.20337,0.59267 l -0.72488,0.2774 -17.949341,0.0432 c -9.872134,0.0238 -17.958859,0.0523 -17.9705,0.0635 -0.01164,0.0112 -0.02117,0.98776 -0.02117,2.17023 0,1.88236 0.01667,2.15634 0.133925,2.20133 0.07366,0.0283 7.388858,0.0514 16.256,0.0514 8.867141,0 16.122076,0.0302 16.122076,0.0672 0,0.037 -0.962026,1.02136 -2.137834,2.18758 -2.275366,2.2568 -2.531034,2.4535 -3.7465,2.8825 l -0.677334,0.23906 -12.954,0.0423 -12.954,0.0423 -0.02268,2.11073 c -0.01754,1.63216 0.0017,2.12618 0.08467,2.17887 0.05904,0.0375 5.165121,0.0687 11.346846,0.0694 6.181725,6.8e-4 11.2395,0.0321 11.2395,0.0698 0,0.0377 -0.981075,1.03995 -2.180167,2.22729 -1.978354,1.95897 -2.239402,2.18768 -2.820079,2.47082 -0.351952,0.17161 -0.939072,0.38852 -1.30471,0.48204 -0.648614,0.16589 -0.913344,0.16982 -10.874754,0.16152 -5.615476,-0.005 -10.353424,-0.0423 -10.528772,-0.0836 z m -58.9902151,-12.43854 2.4e-6,-2.75167 6.2810668,0.0228 c 3.4545869,0.0125 6.2943939,0.0361 6.3106829,0.0524 0.01629,0.0163 -0.104466,0.2547 -0.268345,0.5298 -0.490941,0.82415 -0.639377,1.59164 -0.639377,3.3059 0,1.09929 -0.02673,1.48067 -0.105833,1.50995 -0.05821,0.0215 -2.687116,0.0489 -5.8420166,0.0608 l -5.7361829,0.0217 z"
         id="path4535"
         inkscape:connector-curvature="0" />
      <path
         style="fill:#fff;stroke-width:0.08466666"
         d="m 16.938012,147.4947 c -0.02606,-0.10528 -0.03642,-3.04891 -0.02301,-6.54141 l 0.02438,-6.35 0.204269,-0.50737 c 0.278439,-0.69161 0.977958,-1.38977 1.641032,-1.63786 l 0.489385,-0.1831 h 12.986233 c 7.142427,0 13.046498,-0.0231 13.120156,-0.0514 0.117058,-0.0449 0.133925,-0.31151 0.133925,-2.11667 0,-1.1359 -0.0095,-2.07452 -0.02117,-2.08583 -0.01164,-0.0113 -6.441016,-0.0399 -14.2875,-0.0635 l -14.266333,-0.0429 -0.02232,-2.77366 -0.02232,-2.77366 16.870991,0.022 16.870991,0.022 0.502731,0.24651 c 0.640297,0.31395 1.184589,0.85824 1.472528,1.47252 l 0.226075,0.48231 0.02362,5.32504 c 0.026,5.86121 0.03045,5.80173 -0.49222,6.59081 -0.144946,0.21883 -0.447155,0.53266 -0.671576,0.6974 -0.731155,0.53672 -0.93587,0.57787 -3.071996,0.61746 -1.059392,0.0196 -1.926167,0.0608 -1.926167,0.0914 0,0.0307 2.1336,2.18909 4.741334,4.79651 2.607733,2.60742 4.741333,4.78852 4.741333,4.84688 0,0.0837 -0.934572,0.10612 -4.422139,0.10612 h -4.42214 l -4.91333,-4.91066 -4.913331,-4.91067 h -6.581864 c -3.620024,0 -6.590607,0.01 -6.601294,0.0212 -0.01069,0.0116 -0.03926,2.21191 -0.0635,4.8895 l -0.04407,4.86833 -3.617659,0.0221 -3.617658,0.0221 z m 72.772374,0.0831 c 0,-0.0586 5.419725,-5.52075 12.043834,-12.13814 12.807,-12.794 12.24624,-12.26717 13.61017,-12.78653 l 0.635,-0.2418 h 7.40833 7.40833 l 0.51546,0.26947 c 0.66138,0.34575 1.32367,1.06219 1.53058,1.65572 0.14765,0.42355 0.1553,1.00824 0.1553,11.87548 v 11.43 h -3.64067 -3.64067 l -0.0423,-4.86833 -0.0423,-4.86834 -8.63463,-0.0216 -8.63462,-0.0216 -4.91374,4.91107 -4.913734,4.91107 h -4.42214 c -3.496716,0 -4.42214,-0.0223 -4.42214,-0.10653 z m 35.881734,-15.4044 c 0.14422,-0.14422 0.14422,-3.97058 0,-4.1148 -0.0758,-0.0758 -1.01428,-0.1016 -3.70065,-0.1016 h -3.59906 l -2.06839,2.06348 c -1.2342,1.23127 -2.04457,2.102 -2.00934,2.159 0.0875,0.14153 11.23578,0.13558 11.37744,-0.006 z m 12.99515,15.38822 c -0.83375,-0.26085 -1.5694,-0.8919 -1.91759,-1.64493 l -0.18096,-0.39136 V 135.02667 124.528 l 0.19848,-0.39932 c 0.2983,-0.60012 0.78619,-1.10359 1.38302,-1.42718 l 0.53517,-0.29017 14.96483,-0.0223 14.96483,-0.0223 v 2.79515 2.79515 h -12.2274 c -6.72508,0 -12.28768,0.0231 -12.36134,0.0514 -0.12062,0.0463 -0.13392,0.74349 -0.13392,7.01828 0,6.27478 0.0133,6.97198 0.13392,7.01827 0.0737,0.0283 5.63678,0.0514 12.3625,0.0514 h 12.22855 l -0.0223,2.77283 -0.0223,2.77284 -14.77433,0.0156 c -12.02535,0.0127 -14.84072,-0.005 -15.13112,-0.096 z m 33.30713,0.0672 c -0.0315,-0.0315 -0.0573,-5.72789 -0.0573,-12.65856 v -12.60122 h 3.683 3.683 v 4.8514 c 0,3.66042 0.025,4.87634 0.1016,4.953 0.0778,0.0778 2.26941,0.1016 9.34874,0.1016 5.08593,0 9.30741,-0.0231 9.38107,-0.0514 0.11999,-0.0461 0.13393,-0.56148 0.13393,-4.953 v -4.90161 h 3.68328 3.68327 l -0.0214,12.6365 -0.0214,12.6365 -3.59276,0.0221 c -2.81803,0.0173 -3.60738,-9.3e-4 -3.66054,-0.0847 -0.0373,-0.0587 -0.0684,-2.26911 -0.0691,-4.91196 l -0.001,-4.8052 -9.4615,0.0215 -9.4615,0.0215 -0.0423,4.86834 -0.0423,4.86833 -3.60449,0.0221 c -1.98247,0.0121 -3.63029,-0.004 -3.66183,-0.0353 z"
         id="path4533"
         inkscape:connector-curvature="0" />
      <path
         style="fill:#fff;stroke-width:0.08466666"
         d="m 17.038164,147.54318 c -0.09427,-0.0943 -0.06616,-12.31521 0.02948,-12.81954 0.175801,-0.92699 0.707583,-1.64683 1.540996,-2.08595 l 0.447409,-0.23573 13.158256,-0.0222 c 9.487612,-0.016 13.189847,-0.0484 13.2715,-0.1162 0.155217,-0.12882 0.166092,-4.1352 0.01164,-4.28965 -0.07821,-0.0782 -3.362799,-0.1016 -14.26899,-0.1016 -11.257088,0 -14.175242,-0.0217 -14.205606,-0.10583 -0.02102,-0.0582 -0.0484,-1.29694 -0.06084,-2.75275 l -0.02263,-2.64691 16.830593,0.0222 c 11.215565,0.0148 16.850746,0.0508 16.891,0.1078 0.03322,0.047 0.261995,0.17812 0.50838,0.29127 0.529461,0.24312 1.13364,0.85828 1.396211,1.42158 l 0.187816,0.40293 v 5.50333 5.50333 l -0.238703,0.46567 c -0.287106,0.56009 -0.649795,0.95513 -1.145813,1.24801 -0.612484,0.36164 -1.166347,0.44255 -3.039317,0.444 -1.577168,0.001 -1.7145,0.0132 -1.7145,0.14977 0,0.0833 2.063185,2.21139 4.699,4.84689 2.58445,2.58413 4.699,4.72713 4.699,4.76221 0,0.0351 -1.933138,0.0638 -4.295863,0.0638 h -4.295864 l -4.91333,-4.91066 -4.913331,-4.91067 H 30.93791 c -5.991978,0 -6.66188,0.0134 -6.708139,0.13393 -0.02827,0.0737 -0.05139,2.28346 -0.05139,4.91066 v 4.77674 h -3.541889 c -1.948039,0 -3.567289,-0.0254 -3.598333,-0.0564 z m 72.844112,-0.007 c 0.0014,-0.0349 5.383031,-5.45999 11.959164,-12.05571 11.21288,-11.24625 11.99348,-12.01074 12.54928,-12.29018 0.32597,-0.16388 0.80222,-0.36516 1.05833,-0.44728 0.25612,-0.0821 0.49284,-0.19033 0.52605,-0.24048 0.067,-0.10111 13.64304,-0.18563 14.43993,-0.0899 0.2451,0.0294 0.42383,0.0888 0.39717,0.13197 -0.0267,0.0431 0.0205,0.0788 0.10469,0.0792 0.24812,10e-4 0.9905,0.46835 1.29419,0.81423 0.15465,0.17614 0.38029,0.53154 0.50141,0.78978 l 0.22023,0.46953 v 11.43 11.43 h -3.556 -3.556 l -0.0423,-4.86833 -0.0423,-4.86833 -8.71857,-0.0216 -8.71857,-0.0216 -4.91373,4.91107 -4.913733,4.91106 h -4.295868 c -2.362725,0 -4.294708,-0.0286 -4.293303,-0.0635 z m 35.794514,-15.27809 c 0.14439,-0.1444 0.14439,-4.13975 0,-4.28414 -0.0759,-0.0759 -1.03298,-0.1016 -3.78479,-0.1016 h -3.68319 l -2.02088,2.01084 c -1.11149,1.10595 -2.06022,2.08235 -2.10829,2.16976 -0.0646,0.1174 -0.0575,0.17791 0.0272,0.23154 0.19016,0.12051 11.44875,0.0948 11.56997,-0.0264 z m 13.03312,15.24959 c -0.78789,-0.18592 -1.48782,-0.75113 -1.90079,-1.53494 l -0.23573,-0.44739 -0.0225,-10.34381 -0.0225,-10.34382 0.18097,-0.49352 c 0.22253,-0.60682 1.04421,-1.46788 1.56187,-1.63673 0.18377,-0.06 0.3613,-0.15109 0.39453,-0.20255 0.0436,-0.0676 4.20138,-0.0998 14.97433,-0.11589 13.62441,-0.0204 14.90944,-0.0106 14.86209,0.11276 -0.0285,0.0743 -0.0518,1.31306 -0.0518,2.75282 v 2.61774 h -12.22741 c -6.72507,0 -12.28767,0.0231 -12.36133,0.0514 -0.12065,0.0463 -0.13393,0.75096 -0.13393,7.10295 0,6.35198 0.0133,7.05664 0.13393,7.10294 0.0737,0.0283 5.63679,0.0514 12.36251,0.0514 h 12.22861 l -0.0224,2.68816 -0.0223,2.68817 -14.68966,0.0128 c -8.32065,0.007 -14.8279,-0.0198 -15.00848,-0.0624 z m 33.25185,-0.0129 c -0.022,-0.0587 -0.0496,-5.73604 -0.0612,-12.61627 l -0.0212,-12.5095 3.64066,-2e-5 3.64067,-1e-5 -0.0232,4.8784 c -0.017,3.57336 0.003,4.90969 0.0739,4.99536 0.0815,0.0982 1.59765,0.11674 9.46353,0.11565 5.15156,-6.8e-4 9.415,-0.0321 9.47431,-0.0697 0.0858,-0.0544 0.10311,-1.07668 0.0847,-4.99406 l -0.0232,-4.92561 3.64067,10e-6 3.64066,2e-5 -0.0212,12.5095 c -0.0117,6.88023 -0.0392,12.55755 -0.0612,12.61627 -0.0315,0.0841 -0.7924,0.10207 -3.57716,0.0847 l -3.53713,-0.0221 -0.0423,-4.86833 -0.0423,-4.86833 h -9.525 -9.525 l -0.0423,4.86833 -0.0423,4.86833 -3.53713,0.0221 c -2.78476,0.0174 -3.54565,-5.9e-4 -3.57716,-0.0847 z"
         id="path4531"
         inkscape:connector-curvature="0" />
    </g>
  </g>
</svg>
