<?xml version="1.0" encoding="UTF-8" standalone="no"?>
<!-- Created with Inkscape (http://www.inkscape.org/) -->

<svg
   xmlns:dc="http://purl.org/dc/elements/1.1/"
   xmlns:cc="http://creativecommons.org/ns#"
   xmlns:rdf="http://www.w3.org/1999/02/22-rdf-syntax-ns#"
   xmlns:svg="http://www.w3.org/2000/svg"
   xmlns="http://www.w3.org/2000/svg"
   xmlns:sodipodi="http://sodipodi.sourceforge.net/DTD/sodipodi-0.dtd"
   xmlns:inkscape="http://www.inkscape.org/namespaces/inkscape"
   width="288.39584mm"
   height="220.39792mm"
   viewBox="0 0 288.39584 220.39792"
   version="1.1"
   id="svg8"
   inkscape:version="0.92.4 (5da689c313, 2019-01-14)"
   sodipodi:docname="winter.svg">
  <defs
     id="defs2" />
  <sodipodi:namedview
     id="base"
     pagecolor="#ffffff"
     bordercolor="#666666"
     borderopacity="1.0"
     inkscape:pageopacity="0.0"
     inkscape:pageshadow="2"
     inkscape:zoom="0.35"
     inkscape:cx="65.00003"
     inkscape:cy="342.21431"
     inkscape:document-units="mm"
     inkscape:current-layer="layer1"
     showgrid="false"
     fit-margin-top="0"
     fit-margin-left="0"
     fit-margin-right="0"
     fit-margin-bottom="0"
     inkscape:window-width="1920"
     inkscape:window-height="1001"
     inkscape:window-x="4791"
     inkscape:window-y="-9"
     inkscape:window-maximized="1" />
  <metadata
     id="metadata5">
    <rdf:RDF>
      <cc:Work
         rdf:about="">
        <dc:format>image/svg+xml</dc:format>
        <dc:type
           rdf:resource="http://purl.org/dc/dcmitype/StillImage" />
        <dc:title />
      </cc:Work>
    </rdf:RDF>
  </metadata>
  <g
     inkscape:label="Layer 1"
     inkscape:groupmode="layer"
     id="layer1"
     transform="translate(37.608639,-18.979618)">
    <path
       style="fill:#fff;stroke-width:0.26458335"
       d="m -14.43784,207.34481 c -0.47666,-0.51311 -5.12406,-13.54611 -5.1107,-14.33229 0.0191,-1.126 1.9395,-1.71722 2.71141,-0.83476 0.22276,0.25467 1.1616,2.75498 2.08632,5.55625 0.92471,2.80128 1.75924,5.09323 1.85451,5.09323 0.0953,0 0.85933,-1.99429 1.69792,-4.43177 1.9460895,-5.65661 2.1623295,-6.1219 2.9352295,-6.31588 1.35415,-0.33987 1.77681,0.33728 3.56092,5.70503 0.92183,2.77344 1.7567,5.04262 1.85526,5.04262 0.0986,0 0.94852,-2.35148 1.88879002,-5.22552 1.84776,-5.64784 2.18755998,-6.17652 3.72224998,-5.79134 1.01702,0.25526 1.17429,1.23365 0.51267,3.18936 -1.48753,4.39711 -4.40432,11.98238 -4.76496,12.39157 -0.47454,0.53842 -1.88082,0.61251 -2.51109,0.13229 -0.23873,-0.1819 -1.16471,-2.41432 -2.05771,-4.96094 -0.89301,-2.54661 -1.7141,-4.72495 -1.82464,-4.84074 -0.11054,-0.11579 -0.95405,1.89881 -1.87445,4.47691 -0.9203995,2.57809 -1.8912695,4.90525 -2.1574895,5.17147 -0.63207,0.63207 -1.92552,0.61901 -2.52424,-0.0255 z m 24.1990695,0.22374 c -0.42378,-0.24683 -0.46302,-0.90682 -0.46302,-7.78785 0,-7.16221 0.0242,-7.53114 0.51177,-7.79206 0.7843605,-0.41978 1.5506805,-0.32811 2.1340605,0.25527 0.50232,0.50232 0.52917,0.88194 0.52917,7.48175 0,5.86442 -0.0645,7.04463 -0.41188,7.54063 -0.44199,0.63103 -1.4975,0.76973 -2.3001005,0.30226 z m 9.1786905,-0.0898 c -0.48696,-0.35608 -0.51359,-0.7549 -0.51359,-7.69424 0,-7.01325 0.0221,-7.33486 0.52917,-7.7059 0.85371,-0.62468 2.0348,-0.35966 2.50529,0.56215 0.22282,0.43656 0.43536,0.84382 0.47231,0.90503 0.0369,0.0612 0.35013,-0.15451 0.69593,-0.47938 0.73703,-0.6924 2.74936,-1.3517 4.12571,-1.3517 1.78423,0 3.58124,0.71924 4.59182,1.83783 1.46376,1.62021 1.76415,3.06244 1.76415,8.47007 0,5.15951 -0.17818,5.83536 -1.53636,5.82764 -1.46754,-0.008 -1.49526,-0.10076 -1.64282,-5.4758 -0.11604,-4.22712 -0.21051,-5.09453 -0.63117,-5.79523 -1.15736,-1.92781 -4.01703,-2.44173 -5.84186,-1.04987 -1.53602,1.17158 -1.72488,1.91981 -1.72488,6.83362 0,3.47742 -0.08,4.42942 -0.41187,4.90329 -0.47676,0.68067 -1.60402,0.78124 -2.38183,0.21249 z m 23.90517,0.11403 c -1.18404,-0.35692 -2.30351,-1.30511 -2.91943,-2.47274 -0.51922,-0.98431 -0.59213,-1.59038 -0.68165,-5.66626 l -0.10025,-4.56407 h -0.70869 c -1.55649,0 -2.44863,-1.51501 -1.469,-2.49464 0.22867,-0.22868 0.82398,-0.41577 1.32291,-0.41577 h 0.90714 v -2.0578 c 0,-2.50476 0.38775,-3.23387 1.7198,-3.23387 1.33204,0 1.71979,0.72911 1.71979,3.23387 v 2.0578 h 2.36235 c 2.57469,0 3.1939,0.28288 3.1939,1.4591 0,1.05578 -0.9174,1.45131 -3.36617,1.45131 h -2.19008 v 3.98189 c 0,5.47662 0.50304,6.31197 3.57025,5.92874 1.565,-0.19553 2.07812,0.1708 1.93897,1.38431 -0.15583,1.35906 -2.97649,2.10849 -5.29984,1.40813 z m 15.50229,0.0104 c -3.70787,-0.88518 -5.91441,-3.75745 -5.9195,-7.70544 -0.003,-2.44327 0.51229,-4.05785 1.76124,-5.51697 1.82263,-2.12934 4.96043,-3.06534 8.09475,-2.41466 3.22865,0.67027 5.41867,3.16213 5.68399,6.46738 0.20305,2.52966 0.17205,2.54159 -6.60561,2.54159 h -5.49737 l 0.002,0.59531 c 10e-4,0.32743 0.21192,0.914 0.4688,1.3035 1.53594,2.32891 4.68359,2.94056 7.93488,1.54189 1.79697,-0.77303 2.55041,-0.64904 2.65584,0.43707 0.0663,0.68328 -0.0779,0.95516 -0.79375,1.49588 -1.68113,1.26991 -5.28664,1.85089 -7.78502,1.25445 z m 6.4583,-9.68134 c 0.0425,-0.29683 -0.19563,-0.94072 -0.52917,-1.43088 -1.76746,-2.59741 -4.95538,-3.02299 -7.08288,-0.94554 -0.92788,0.90605 -1.71865,2.57032 -1.38148,2.9075 0.0843,0.0843 2.12494,0.12071 4.53476,0.0809 4.18079,-0.069 4.38505,-0.097 4.45877,-0.61202 z m 7.95878,9.49542 c -0.45579,-0.54849 -0.67955,-13.59633 -0.25244,-14.71973 0.54594,-1.43593 2.72818,-1.19035 3.06539,0.34496 l 0.18286,0.83256 0.56949,-0.52008 c 1.50662,-1.37589 4.45981,-2.07782 5.28214,-1.25548 0.58848,0.58848 0.5693,1.80348 -0.0371,2.35229 -0.26612,0.24084 -0.8912,0.4405 -1.38906,0.44369 -1.30935,0.008 -2.97673,0.85416 -3.70951,1.88159 -0.59792,0.83834 -0.64306,1.16463 -0.76758,5.54725 -0.0965,3.39795 -0.23043,4.77454 -0.49541,5.09322 -0.46975,0.56495 -1.97921,0.56478 -2.44875,-2.6e-4 z m 15.5355,0.14113 c -2.13652,-0.50115 -3.32015,-1.66263 -2.93404,-2.87914 0.21984,-0.69265 1.29682,-0.69488 2.81538,-0.006 0.75038,0.34049 1.73535,0.52538 2.81904,0.52916 1.42009,0.005 1.76143,-0.0899 2.3151,-0.64362 0.86103,-0.86103 0.87235,-2.10273 0.0242,-2.65843 -0.34386,-0.22531 -1.46269,-0.58428 -2.48629,-0.7977 -2.26585,-0.47245 -2.64003,-0.60334 -3.57322,-1.25002 -1.01054,-0.70026 -1.57842,-1.91701 -1.57842,-3.38191 0,-3.61919 3.62326,-5.51877 8.52242,-4.46809 1.46102,0.31333 2.91572,1.34294 2.91572,2.06369 0,1.09177 -1.26685,1.40395 -2.69672,0.66454 -1.15556,-0.59757 -3.64049,-0.61317 -4.53287,-0.0285 -0.56993,0.37344 -0.70792,0.66777 -0.70792,1.50999 0,1.32014 0.44076,1.62563 3.43958,2.38395 3.70811,0.93769 4.8225,1.9851 4.8029,4.51426 -0.0169,2.18366 -1.07175,3.49691 -3.49576,4.35215 -1.21596,0.42902 -4.02474,0.47647 -5.64914,0.0954 z m 14.56947,-0.188 c -0.39232,-0.43351 -0.43788,-1.60188 -0.43788,-11.22979 v -10.74593 l 0.58804,-0.41188 c 0.78278,-0.54828 1.61291,-0.52048 2.14907,0.072 0.36696,0.40547 0.43789,1.13408 0.43789,4.49791 0,2.20774 0.0542,4.01407 0.12054,4.01407 0.0663,0 0.55888,-0.29747 1.09463,-0.66104 2.83996,-1.92724 7.3344,-1.34999 9.02443,1.15908 0.97784,1.45174 1.13445,2.5386 1.136,7.88358 0.002,5.56592 -0.0884,5.90588 -1.56391,5.90588 -1.46678,0 -1.60961,-0.49524 -1.60961,-5.58121 0,-5.44984 -0.1921,-6.06964 -2.19352,-7.07715 -1.4076,-0.70859 -2.68542,-0.63298 -4.12789,0.24423 -1.55231,0.94402 -1.86826,2.15224 -1.87486,7.16971 -0.005,3.65352 -0.0774,4.48442 -0.42159,4.82864 -0.56139,0.56139 -1.78413,0.52553 -2.32134,-0.0681 z m 24.30066,0.1568 c -3.39912,-1.2217 -5.38105,-4.48161 -5.09743,-8.38436 0.34213,-4.70789 3.71747,-7.75874 8.14027,-7.3577 1.52533,0.13831 3.3334,0.88394 3.95257,1.62999 0.47249,0.56932 0.8098,0.52227 0.8098,-0.11296 0,-0.71804 0.91945,-1.5875 1.67878,-1.5875 0.34125,0 0.8175,0.21774 1.05834,0.48386 0.38477,0.42517 0.43788,1.3534 0.43788,7.65402 0,6.16555 -0.0583,7.22842 -0.41578,7.58593 -0.9419,0.9419 -2.75922,0.18814 -2.75922,-1.14443 v -0.59249 l -0.77453,0.55151 c -2.10758,1.50073 -4.96131,2.01789 -7.03068,1.27413 z m 5.194,-3.00852 c 3.42068,-1.71791 3.40167,-7.57751 -0.0305,-9.40319 -2.21586,-1.17869 -5.26354,-0.22969 -6.32871,1.97065 -0.64922,1.34111 -0.74257,3.72317 -0.1968,5.02193 1.06778,2.541 4.08635,3.65091 6.55601,2.41061 z m 14.61049,3.04653 c -1.05699,-0.3062 -2.36346,-1.78261 -2.72296,-3.07716 -0.16829,-0.60602 -0.27812,-4.5144 -0.27901,-9.92911 -0.001,-8.57795 0.0194,-8.95053 0.52769,-9.45885 0.29104,-0.29104 0.82682,-0.52917 1.19062,-0.52917 0.36381,0 0.89959,0.23813 1.19063,0.52917 0.50872,0.50872 0.52917,0.88194 0.52917,9.65729 0,8.77535 0.0205,9.14858 0.52916,9.65729 0.29104,0.29105 0.82682,0.52917 1.19063,0.52917 0.92118,0 1.79448,0.92481 1.57432,1.66718 -0.35402,1.19368 -1.70801,1.54003 -3.73025,0.95419 z m 11.10288,-0.002 c -1.13488,-0.32837 -2.38541,-1.62946 -2.71835,-2.82825 -0.16274,-0.58596 -0.27312,-4.67904 -0.274,-10.16052 l -10e-4,-9.17938 0.58804,-0.41188 c 0.66354,-0.46476 1.46926,-0.52476 2.0578,-0.15325 0.33611,0.21218 0.41712,1.66214 0.52916,9.47063 0.14984,10.44259 0.11577,10.27112 2.13734,10.75848 1.07556,0.2593 1.17697,0.35583 1.25693,1.19642 0.14097,1.48214 -1.23418,1.98508 -3.57544,1.30764 z m 18.8514,-0.22681 c -2.89673,-1.16713 -4.64731,-3.94747 -4.64731,-7.38117 0,-2.7381 0.58597,-4.33402 2.2,-5.9918 1.65644,-1.70135 3.57611,-2.3979 6.00222,-2.17791 1.52532,0.13831 3.3334,0.88394 3.95256,1.62999 0.18999,0.22891 0.44991,0.41621 0.57762,0.41621 0.1277,0 0.23218,-1.88655 0.23218,-4.19232 0,-3.72544 0.0539,-4.2411 0.48386,-4.63021 0.65059,-0.58878 1.51856,-0.55213 2.16198,0.0913 0.51167,0.51168 0.52916,0.88194 0.52916,11.20378 0,10.00538 -0.0303,10.70208 -0.48385,11.1125 -1.0126,0.91639 -2.69115,0.2276 -2.69115,-1.1043 0,-0.67658 -0.32665,-0.74042 -0.8098,-0.15827 -1.25798,1.51579 -5.15582,2.12953 -7.50747,1.18211 z m 6.05802,-3.02245 c 0.37001,-0.24244 0.99995,-0.93523 1.39985,-1.53953 0.62489,-0.94427 0.72711,-1.36791 0.72711,-3.01349 0,-1.70226 -0.0881,-2.03905 -0.79375,-3.03466 -0.43656,-0.61594 -1.20861,-1.34057 -1.71566,-1.61029 -1.28795,-0.6851 -3.30112,-0.63747 -4.6188,0.10927 -2.93377,1.66259 -3.1564,6.97145 -0.3754,8.9517 1.4719,1.04808 3.89205,1.10975 5.37665,0.137 z m 15.84096,3.05104 c -1.75971,-0.60811 -2.99456,-1.56157 -4.01218,-3.09789 -0.94631,-1.42868 -1.21795,-2.85523 -1.0466,-5.49652 0.18597,-2.86674 1.49638,-4.88838 4.02096,-6.20337 1.16492,-0.60678 1.66823,-0.70165 3.72799,-0.70273 1.8427,-0.001 2.65119,0.12192 3.57484,0.54335 2.40689,1.0982 3.89978,3.3177 4.15972,6.18433 0.21318,2.35103 0.1219,2.38342 -6.71663,2.38342 h -5.6112 l 0.22734,0.79269 c 0.82874,2.88966 4.13361,4.16428 7.54093,2.90839 0.87312,-0.32182 2.00422,-0.60161 2.51354,-0.62175 0.88697,-0.0351 0.92604,0.002 0.92604,0.87889 0,0.74651 -0.16662,1.02778 -0.90266,1.5238 -2.07338,1.39725 -5.81519,1.80136 -8.40209,0.90739 z m 7.19128,-9.04041 c 0.27756,-0.44909 -0.36676,-1.98174 -1.13379,-2.69698 -1.10889,-1.03402 -1.89367,-1.34219 -3.41794,-1.34219 -2.10749,0 -3.48532,1.05585 -4.29265,3.28953 -0.13924,0.38522 -0.18138,0.77217 -0.0937,0.8599 0.28294,0.28294 8.75966,0.17837 8.93804,-0.11026 z m 12.1373,9.1023 c -1.59051,-0.56408 -3.14097,-2.02034 -3.98843,-3.74613 -0.64948,-1.3226 -0.74321,-1.81632 -0.73963,-3.89579 0.003,-1.93105 0.12284,-2.64575 0.63218,-3.78028 1.26546,-2.81876 4.24249,-4.50841 7.43365,-4.21905 1.52532,0.13832 3.3334,0.88395 3.95256,1.62999 0.4932,0.59428 0.8098,0.51443 0.8098,-0.20424 0,-1.31472 1.84568,-1.99738 2.73712,-1.01236 0.38478,0.42518 0.43788,1.3534 0.43788,7.65402 0,6.16555 -0.0583,7.22842 -0.41577,7.58594 -0.93241,0.93242 -2.75923,0.19051 -2.75923,-1.12059 0,-0.55034 -0.0402,-0.54318 -1.24764,0.22258 -2.1463,1.36114 -4.61321,1.68007 -6.85249,0.88591 z m 5.94594,-3.20418 c 2.35501,-1.74404 2.81036,-5.47959 0.96311,-7.90144 -1.83547,-2.40642 -5.77605,-2.23164 -7.53417,0.33417 -0.76,1.10914 -1.03853,3.72099 -0.55353,5.19055 0.46098,1.39678 1.92697,2.76057 3.25656,3.02952 1.40682,0.28456 2.95512,0.0232 3.86803,-0.6528 z M 9.9108195,189.33165 c -0.62395,-0.25139 -1.14178,-1.0281 -1.14178,-1.71258 0,-0.72162 1.22428,-1.72516 2.1046405,-1.72516 1.74375,0 2.5178,2.09324 1.16697,3.1558 -0.7477,0.58813 -1.216,0.65013 -2.1298305,0.28194 z M 62.41735,151.25413 C 57.95609,150.28269 52.82742,148.10642 49.20972,145.64969 40.73395,139.89391 31.51258,128.4536 25.23957,115.91162 16.23915,97.916548 13.13906,78.611278 17.11467,65.315238 21.42335,50.905274 32.30668,42.056009 46.68674,41.270099 c 9.13228,-0.499105 17.54495,2.50549 25.7632,9.201364 1.04537,0.851725 3.60522,3.358965 5.68854,5.571638 2.08332,2.212676 5.94843,6.220071 8.58914,8.905317 l 4.80128,4.88228 1.94559,-1.20447 c 5.4741,-3.38889 10.0367,-4.937076 16.2798,-5.524057 9.08596,-0.85427 18.17688,1.743347 26.60157,7.601067 1.12312,0.78091 2.08154,1.41983 2.12982,1.41983 0.0483,0 1.74875,-1.64393 3.77881,-3.65318 4.05953,-4.017905 6.21833,-5.815685 9.83648,-8.19149 6.26184,-4.111742 12.14022,-6.081467 18.85766,-6.318811 3.51444,-0.124174 4.0568,-0.07855 6.46141,0.543541 1.44372,0.373499 3.39557,1.03971 4.33743,1.480463 4.68989,2.194661 8.93067,6.608588 10.87165,11.315527 1.72764,4.18955 1.74729,4.32622 1.72116,11.9677 -0.0257,7.52564 -0.32893,10.33664 -1.85048,17.15679 -2.01316,9.023642 -6.36239,18.692272 -12.63432,28.086972 -5.53855,8.29616 -11.16359,13.75136 -17.32232,16.79929 -5.34428,2.64486 -10.43991,3.32824 -15.79502,2.11826 -3.15198,-0.71218 -10.59288,-4.14493 -16.98084,-7.83386 -5.8561,-3.3818 -9.02961,-4.52882 -13.86857,-5.01257 -4.83875,-0.48374 -8.66452,0.33476 -13.73248,2.93799 -3.66885,1.88457 -4.66908,2.57537 -14.57566,10.06674 -4.85187,3.66898 -10.17913,6.58369 -13.73405,7.51431 -2.68891,0.70391 -8.55002,0.7825 -11.43919,0.15339 z m 10.51315,-3.60712 c 2.08107,-0.55457 5.90446,-2.36884 8.35814,-3.96608 1.07834,-0.70195 4.3881,-3.1132 7.35504,-5.35833 8.31171,-6.2896 11.99915,-8.50466 16.79756,-10.09038 3.30662,-1.09273 5.82628,-1.43491 9.29343,-1.26206 3.43328,0.17116 6.27553,0.72347 9.23098,1.79378 2.00084,0.7246 3.31827,1.40152 11.25476,5.78285 3.4421,1.9002 8.01359,4.01623 10.7351,4.969 2.54446,0.89079 6.60202,1.10179 9.66942,0.50282 4.32002,-0.84357 9.58436,-3.97133 13.81475,-8.20792 6.2886,-6.2978 12.82811,-16.75496 16.72657,-26.74699 0.94766,-2.42891 2.25488,-6.362492 2.25488,-6.785162 0,-0.0624 -2.11336,-0.12203 -4.69635,-0.13242 -8.10074,-0.0326 -16.86028,-1.8163 -23.74636,-4.83556 -1.46053,-0.64038 -1.73563,-0.67716 -3.43958,-0.45984 -1.01865,0.12992 -5.3049,0.24392 -9.525,0.25334 -7.98451,0.0178 -12.67725,-0.33113 -18.96759,-1.41038 l -2.922,-0.50133 -2.15208,1.67202 c -12.64485,9.824242 -28.07824,16.319582 -44.08854,18.555242 -4.15934,0.5808 -14.16331,0.80665 -18.43363,0.41614 -12.45453,-1.13891 -25.08734,-4.78097 -34.58287,-9.97028 -1.72839,-0.94457 -3.1894,-1.67053 -3.24668,-1.61325 -0.15089,0.1509 2.15657,6.21816 3.53346,9.2909 7.59838,16.957 19.19526,31.00657 29.44638,35.67418 3.17514,1.44573 6.54483,2.47251 9.65729,2.94268 1.46734,0.22166 6.07115,-0.0861 7.67292,-0.51297 z m 4.63021,-39.64862 c 12.20859,-1.48877 25.10694,-6.06382 35.58747,-12.622892 2.6431,-1.65414 6.65456,-4.43506 7.00277,-4.85463 0.23997,-0.28914 -0.43564,-0.58894 -3.57815,-1.58778 -9.13711,-2.90422 -16.84373,-7.18478 -23.76703,-13.20118 l -1.4798,-1.28595 -2.31857,1.70198 c -3.70221,2.71768 -4.85131,3.52474 -7.49862,5.26664 -9.38455,6.1749 -18.53836,10.62436 -27.3637,13.30087 -7.24953,2.19861 -13.92221,3.2657 -22.02656,3.52247 -5.95209,0.18858 -5.93242,0.0498 -0.36752,2.593012 8.20552,3.75007 18.19733,6.45097 26.892,7.26919 1.60073,0.15064 3.32714,0.32215 3.83646,0.38113 1.92931,0.2234 11.91007,-0.0961 15.08125,-0.48286 z M 34.43362,94.616748 c 17.22809,-0.92224 32.83023,-7.12735 51.12149,-20.33149 l 3.0996,-2.23755 -5.74544,-5.966 C 73.07387,55.868722 70.10956,52.989831 67.53273,51.148246 58.9945,45.046245 49.20378,43.205269 39.93327,45.958648 29.05032,49.190925 21.56736,58.219106 19.45316,70.667858 c -0.53346,3.14108 -0.6036,10.52526 -0.13822,14.55209 0.46314,4.00759 1.36965,8.54188 1.77494,8.87825 0.20745,0.17216 2.08176,0.38444 4.40502,0.49889 2.22416,0.10958 4.10346,0.2146 4.17622,0.23337 0.0728,0.0188 2.21589,-0.0774 4.7625,-0.21371 z m 154.33485,-0.24984 c 0.56125,-0.21339 0.70107,-0.54065 1.06178,-2.48518 0.51482,-2.77541 1.13081,-8.84026 0.91935,-9.05171 -0.086,-0.086 -1.35641,0.44596 -2.82323,1.18204 -5.29641,2.65786 -13.05746,5.42619 -18.93691,6.7547 -1.57077,0.35493 -2.9179,0.70728 -2.99362,0.783 -0.35898,0.35898 6.30616,2.02414 10.62628,2.65477 2.80284,0.40915 11.20196,0.52143 12.14635,0.16238 z m -36.06609,-5.01076 c 0,-0.12618 -0.4641,-0.53655 -1.03133,-0.91193 -1.65584,-1.09578 -5.45262,-4.35153 -9.11352,-7.81487 -1.86889,-1.76804 -3.48739,-3.21461 -3.59667,-3.21461 -0.10929,0 -0.97856,0.92273 -1.93171,2.05052 -0.95315,1.12779 -3.1873,3.516 -4.96477,5.30713 -1.77747,1.79114 -3.17187,3.3165 -3.09867,3.3897 0.21127,0.21128 4.57059,0.86446 7.4648,1.1185 3.51097,0.30818 16.27187,0.36744 16.27187,0.0756 z m 11.50938,-1.25036 c 8.83787,-1.63837 16.04724,-4.1177 24.44666,-8.40732 l 2.48625,-1.26973 -0.16643,-2.68981 c -0.19922,-3.21984 -0.68569,-5.23179 -1.86589,-7.7169 -2.33548,-4.917732 -6.26593,-8.230916 -11.81304,-9.957825 -2.71863,-0.846354 -8.01332,-0.85335 -11.42645,-0.01511 -7.74941,1.903233 -14.8534,6.362481 -21.99235,13.804825 -2.1571,2.24877 -2.54319,2.77341 -2.24896,3.05606 3.24331,3.11569 9.57674,8.74941 11.22049,9.98086 3.33934,2.50174 6.20364,4.14832 6.98518,4.01553 0.36871,-0.0627 2.33725,-0.42292 4.37454,-0.80059 z m -38.06175,-2.55511 c 3.8274,-3.56091 9.88362,-9.99822 9.88362,-10.50555 0,-0.3181 -1.46509,-1.37682 -4.11715,-2.97517 -4.04088,-2.43536 -6.78963,-3.60433 -10.95648,-4.65946 -2.54815,-0.64525 -3.22579,-0.70527 -7.94512,-0.70371 -5.42665,0.002 -7.58485,0.32959 -11.31655,1.71884 -2.50125,0.93117 -7.20429,3.50164 -7.20429,3.93754 0,0.31498 4.35895,3.75121 7.17019,5.65237 2.83639,1.91818 9.50338,5.296 12.93815,6.5551 3.02441,1.10868 8.16512,2.59432 9.0523,2.61608 0.52787,0.0129 1.18845,-0.42016 2.49533,-1.63604 z"
       id="path821"
       inkscape:connector-curvature="0" />
  </g>
</svg>
